<svg xmlns="http://www.w3.org/2000/svg" xmlns:xlink="http://www.w3.org/1999/xlink" width="1080" zoomAndPan="magnify" viewBox="0 0 810 809.999993" height="1080" preserveAspectRatio="xMidYMid meet" version="1.0"><defs><g/><clipPath id="ed287e7cec"><path d="M 61.003906 283.753906 L 169.582031 283.753906 L 169.582031 471.121094 L 61.003906 471.121094 Z M 61.003906 283.753906 " clip-rule="nonzero"/></clipPath><clipPath id="bf806daea4"><path d="M 176.929688 283.753906 L 285.253906 283.753906 L 285.253906 471.121094 L 176.929688 471.121094 Z M 176.929688 283.753906 " clip-rule="nonzero"/></clipPath></defs><g clip-path="url(#ed287e7cec)"><path fill="#5271ff" d="M 92.816406 301 C 93.046875 300.910156 93.300781 300.808594 93.574219 300.699219 C 93.855469 300.59375 94.15625 300.480469 94.472656 300.363281 C 95.097656 300.117188 95.78125 299.851562 96.492188 299.570312 C 97.1875 299.285156 97.90625 298.992188 98.621094 298.699219 C 99.34375 298.421875 100.0625 298.15625 100.71875 297.894531 C 100.03125 298.054688 99.292969 298.246094 98.542969 298.457031 C 97.816406 298.6875 97.085938 298.941406 96.371094 299.199219 C 94.953125 299.71875 93.59375 300.238281 92.695312 300.695312 C 92.476562 299.085938 93.691406 297.71875 95.464844 297.015625 C 96.339844 296.652344 97.429688 296.523438 98.546875 296.589844 C 99.671875 296.660156 100.84375 296.953125 101.988281 297.5 C 101.660156 298.050781 101.296875 298.550781 100.90625 299 C 100.519531 299.449219 100.089844 299.839844 99.695312 300.222656 C 98.875 300.960938 97.984375 301.503906 97.109375 301.828125 C 95.335938 302.464844 93.703125 302.332031 92.816406 301 Z M 85.425781 312.464844 C 86.417969 311.941406 87.785156 311.15625 89.210938 310.3125 C 89.5625 310.097656 89.941406 309.894531 90.320312 309.6875 C 90.695312 309.484375 91.074219 309.273438 91.449219 309.066406 C 92.195312 308.652344 92.917969 308.242188 93.585938 307.851562 C 92.15625 308.425781 90.511719 309.152344 89.011719 309.921875 C 87.554688 310.71875 86.199219 311.53125 85.261719 312.152344 C 85.03125 311.292969 85.179688 310.433594 85.613281 309.652344 C 86.046875 308.878906 86.753906 308.171875 87.71875 307.683594 C 88.667969 307.183594 89.800781 306.847656 91.027344 306.753906 C 92.257812 306.660156 93.554688 306.789062 94.910156 307.238281 C 93.84375 309.839844 92.007812 311.671875 90.257812 312.703125 C 88.472656 313.691406 86.578125 313.765625 85.425781 312.464844 Z M 79.550781 325.453125 C 80.039062 325.082031 80.617188 324.628906 81.25 324.121094 C 81.886719 323.617188 82.539062 323.050781 83.296875 322.503906 C 84.019531 321.949219 84.773438 321.371094 85.519531 320.804688 C 86.261719 320.242188 86.929688 319.667969 87.640625 319.171875 C 86.867188 319.566406 86.128906 320.050781 85.347656 320.550781 C 84.570312 321.054688 83.785156 321.585938 83.03125 322.117188 C 82.65625 322.386719 82.269531 322.648438 81.929688 322.921875 C 81.59375 323.195312 81.265625 323.460938 80.953125 323.714844 C 80.328125 324.234375 79.773438 324.714844 79.316406 325.132812 C 78.917969 324.238281 78.933594 323.277344 79.269531 322.359375 C 79.355469 322.132812 79.453125 321.902344 79.585938 321.683594 C 79.71875 321.46875 79.875 321.253906 80.046875 321.046875 C 80.390625 320.636719 80.800781 320.246094 81.269531 319.898438 C 82.210938 319.199219 83.367188 318.644531 84.679688 318.351562 C 86.019531 318.070312 87.492188 318.03125 89.007812 318.300781 C 88.804688 319.042969 88.519531 319.722656 88.230469 320.375 C 87.957031 321.035156 87.632812 321.644531 87.269531 322.203125 C 86.558594 323.324219 85.648438 324.21875 84.800781 324.914062 C 83.050781 326.28125 81.019531 326.671875 79.550781 325.453125 Z M 75.554688 339.84375 C 76.015625 339.363281 76.558594 338.777344 77.144531 338.128906 C 77.441406 337.804688 77.734375 337.460938 78.066406 337.117188 C 78.398438 336.773438 78.742188 336.414062 79.089844 336.054688 C 80.488281 334.613281 81.867188 333.078125 83.207031 331.777344 C 81.6875 332.875 80.171875 334.289062 78.730469 335.6875 C 77.257812 337.078125 76.082031 338.503906 75.242188 339.546875 C 74.660156 338.652344 74.507812 337.613281 74.707031 336.566406 C 74.964844 335.535156 75.578125 334.496094 76.460938 333.585938 C 76.902344 333.128906 77.414062 332.707031 77.976562 332.332031 C 78.539062 331.957031 79.210938 331.640625 79.898438 331.382812 C 81.285156 330.859375 82.851562 330.585938 84.515625 330.632812 C 84.335938 332.285156 83.828125 333.753906 83.292969 335.078125 C 83.003906 335.734375 82.664062 336.34375 82.289062 336.894531 C 81.921875 337.449219 81.476562 337.9375 81.085938 338.382812 C 79.449219 340.136719 77.339844 340.90625 75.554688 339.84375 Z M 73.84375 355.464844 C 74.667969 354.28125 75.679688 352.578125 76.949219 350.800781 C 77.546875 349.921875 78.164062 349.011719 78.777344 348.105469 C 79.0625 347.660156 79.402344 347.222656 79.710938 346.792969 C 80.015625 346.367188 80.320312 345.945312 80.609375 345.539062 C 79.929688 346.257812 79.179688 347.046875 78.488281 347.882812 C 77.816406 348.722656 77.144531 349.597656 76.503906 350.46875 C 76.1875 350.910156 75.875 351.34375 75.570312 351.761719 C 75.265625 352.1875 74.980469 352.605469 74.742188 353.007812 C 74.242188 353.816406 73.804688 354.5625 73.457031 355.199219 C 72.679688 354.34375 72.316406 353.261719 72.367188 352.109375 C 72.460938 350.960938 72.929688 349.742188 73.710938 348.617188 C 74.105469 348.058594 74.558594 347.515625 75.117188 347.019531 C 75.683594 346.527344 76.320312 346.074219 77.015625 345.679688 C 78.402344 344.886719 80.023438 344.332031 81.808594 344.105469 C 81.851562 344.996094 81.816406 345.859375 81.707031 346.679688 C 81.652344 347.089844 81.582031 347.492188 81.492188 347.882812 C 81.425781 348.277344 81.347656 348.664062 81.253906 349.039062 C 80.875 350.53125 80.226562 351.855469 79.472656 352.933594 C 78.039062 355.089844 75.933594 356.285156 73.84375 355.464844 Z M 74.769531 371.988281 C 75.101562 371.285156 75.480469 370.433594 75.890625 369.5 C 76.09375 369.035156 76.304688 368.546875 76.527344 368.039062 C 76.632812 367.789062 76.742188 367.535156 76.855469 367.277344 C 76.976562 367.019531 77.101562 366.757812 77.226562 366.496094 C 77.710938 365.460938 78.214844 364.382812 78.710938 363.320312 C 78.832031 363.058594 78.953125 362.796875 79.070312 362.539062 C 79.191406 362.277344 79.328125 362.019531 79.453125 361.765625 C 79.707031 361.261719 79.953125 360.765625 80.191406 360.285156 C 79.890625 360.722656 79.582031 361.183594 79.269531 361.664062 C 79.113281 361.902344 78.957031 362.144531 78.800781 362.390625 C 78.652344 362.636719 78.515625 362.886719 78.371094 363.136719 C 77.800781 364.140625 77.234375 365.1875 76.703125 366.222656 C 76.148438 367.261719 75.71875 368.277344 75.320312 369.226562 C 74.925781 370.171875 74.585938 371.042969 74.324219 371.78125 C 73.355469 371.015625 72.808594 369.929688 72.648438 368.699219 C 72.609375 368.390625 72.589844 368.074219 72.597656 367.753906 C 72.621094 367.429688 72.667969 367.097656 72.738281 366.765625 C 72.878906 366.101562 73.109375 365.421875 73.429688 364.757812 C 73.746094 364.089844 74.152344 363.4375 74.636719 362.8125 C 75.136719 362.191406 75.742188 361.597656 76.40625 361.058594 C 77.742188 359.976562 79.359375 359.105469 81.214844 358.558594 C 81.636719 360.429688 81.601562 362.226562 81.496094 363.871094 C 81.347656 365.515625 80.871094 367.027344 80.324219 368.292969 C 79.15625 370.820312 77.117188 372.472656 74.769531 371.988281 Z M 78.878906 388.976562 C 79.078125 388.175781 79.300781 387.210938 79.535156 386.15625 C 79.78125 385.097656 80.105469 383.925781 80.398438 382.738281 C 80.546875 382.148438 80.695312 381.546875 80.847656 380.941406 C 80.996094 380.339844 81.191406 379.726562 81.355469 379.132812 C 81.699219 377.933594 82.023438 376.769531 82.3125 375.6875 C 81.859375 376.710938 81.410156 377.832031 80.96875 378.996094 C 80.746094 379.582031 80.53125 380.175781 80.320312 380.773438 C 80.132812 381.363281 79.957031 381.960938 79.785156 382.550781 C 79.445312 383.730469 79.136719 384.898438 78.871094 385.976562 C 78.65625 387.042969 78.480469 388.023438 78.359375 388.84375 C 77.769531 388.539062 77.273438 388.128906 76.871094 387.640625 C 76.671875 387.394531 76.492188 387.128906 76.339844 386.84375 C 76.195312 386.558594 76.082031 386.253906 75.988281 385.933594 C 75.628906 384.65625 75.625 383.160156 76.035156 381.640625 C 76.492188 380.109375 77.316406 378.5625 78.488281 377.191406 C 79.066406 376.503906 79.765625 375.855469 80.550781 375.261719 C 81.328125 374.671875 82.1875 374.140625 83.117188 373.683594 C 83.792969 375.585938 84.289062 377.414062 84.367188 379.179688 C 84.378906 379.621094 84.40625 380.050781 84.414062 380.472656 C 84.421875 380.894531 84.40625 381.308594 84.375 381.714844 C 84.308594 382.527344 84.171875 383.304688 83.964844 384.03125 C 83.578125 385.472656 82.980469 386.707031 82.117188 387.59375 C 81.257812 388.476562 80.167969 389.003906 78.878906 388.976562 Z M 86.535156 405.855469 C 86.578125 404.976562 86.613281 403.921875 86.640625 402.773438 C 86.703125 401.613281 86.773438 400.34375 86.847656 399.019531 C 86.890625 398.363281 86.894531 397.71875 86.964844 397.046875 C 87.019531 396.382812 87.078125 395.714844 87.132812 395.054688 C 87.25 393.734375 87.316406 392.476562 87.472656 391.265625 C 87.144531 392.445312 86.921875 393.695312 86.699219 395 C 86.492188 396.296875 86.253906 397.667969 86.167969 398.953125 C 86.058594 400.253906 85.976562 401.535156 85.925781 402.714844 C 85.890625 403.882812 85.933594 404.929688 85.964844 405.816406 C 84.617188 405.417969 83.519531 404.523438 82.898438 403.25 C 82.570312 402.621094 82.335938 401.914062 82.191406 401.15625 C 82.117188 400.78125 82.070312 400.390625 82.042969 399.988281 C 82.023438 399.585938 82.046875 399.164062 82.085938 398.746094 C 82.25 397.050781 82.769531 395.289062 83.75 393.609375 C 84.75 391.921875 86.140625 390.351562 87.90625 389.035156 C 88.484375 389.941406 88.941406 390.867188 89.328125 391.785156 C 89.75 392.691406 90.070312 393.597656 90.300781 394.503906 C 90.421875 394.953125 90.503906 395.40625 90.589844 395.847656 C 90.683594 396.28125 90.753906 396.71875 90.800781 397.144531 C 90.902344 398 90.914062 398.835938 90.847656 399.636719 C 90.769531 400.441406 90.667969 401.179688 90.46875 401.867188 C 90.269531 402.554688 89.992188 403.1875 89.636719 403.738281 C 88.921875 404.839844 87.890625 405.617188 86.535156 405.855469 Z M 98.082031 421.824219 C 97.820312 419.957031 97.3125 417.429688 96.964844 414.652344 C 96.867188 413.972656 96.765625 413.28125 96.667969 412.582031 C 96.5625 411.894531 96.507812 411.175781 96.425781 410.484375 C 96.347656 409.792969 96.269531 409.109375 96.195312 408.4375 C 96.15625 408.101562 96.117188 407.777344 96.078125 407.453125 C 96.039062 407.128906 96.019531 406.796875 95.988281 406.480469 C 95.972656 406.800781 95.949219 407.128906 95.9375 407.460938 C 95.9375 407.785156 95.933594 408.117188 95.933594 408.449219 C 95.933594 409.121094 95.941406 409.8125 95.960938 410.515625 C 95.980469 411.214844 96.007812 411.929688 96.042969 412.640625 C 96.105469 413.335938 96.171875 414.035156 96.25 414.726562 C 96.324219 415.417969 96.40625 416.101562 96.492188 416.765625 C 96.539062 417.101562 96.582031 417.429688 96.628906 417.75 C 96.679688 418.070312 96.742188 418.378906 96.796875 418.679688 C 97.027344 419.890625 97.265625 420.996094 97.488281 421.914062 C 96.011719 421.78125 94.714844 421.054688 93.742188 419.90625 C 92.8125 418.71875 92.167969 417.148438 91.9375 415.386719 C 91.753906 413.589844 91.953125 411.621094 92.589844 409.695312 C 93.277344 407.730469 94.402344 405.804688 95.964844 404.074219 C 96.359375 404.484375 96.722656 404.90625 97.0625 405.335938 C 97.402344 405.761719 97.699219 406.203125 98.023438 406.621094 C 98.644531 407.472656 99.160156 408.351562 99.585938 409.242188 C 99.789062 409.695312 100 410.125 100.1875 410.558594 C 100.371094 410.992188 100.53125 411.429688 100.671875 411.867188 C 100.953125 412.734375 101.121094 413.617188 101.238281 414.445312 C 101.722656 417.722656 100.777344 420.75 98.082031 421.824219 Z M 113.769531 435.886719 C 113.585938 435.433594 113.378906 434.9375 113.160156 434.398438 C 113.046875 434.132812 112.933594 433.855469 112.816406 433.574219 C 112.703125 433.28125 112.589844 432.980469 112.472656 432.671875 C 112.003906 431.472656 111.492188 430.148438 110.957031 428.773438 C 110.476562 427.40625 109.972656 425.984375 109.480469 424.578125 L 109.296875 424.066406 L 109.128906 423.539062 C 109.019531 423.191406 108.910156 422.847656 108.800781 422.503906 C 108.582031 421.832031 108.367188 421.171875 108.160156 420.535156 C 108.386719 421.84375 108.65625 423.277344 109.003906 424.71875 C 109.375 426.132812 109.792969 427.582031 110.238281 428.996094 C 110.695312 430.398438 111.222656 431.707031 111.710938 432.9375 C 111.964844 433.542969 112.195312 434.140625 112.449219 434.664062 C 112.699219 435.191406 112.941406 435.675781 113.167969 436.117188 C 112.382812 436.230469 111.601562 436.1875 110.875 435.972656 C 110.15625 435.75 109.476562 435.375 108.847656 434.886719 C 108.222656 434.390625 107.640625 433.792969 107.152344 433.074219 C 106.675781 432.339844 106.273438 431.515625 105.964844 430.621094 C 105.660156 429.722656 105.414062 428.789062 105.328125 427.757812 C 105.238281 426.734375 105.25 425.671875 105.378906 424.59375 C 105.503906 423.515625 105.746094 422.421875 106.109375 421.335938 C 106.484375 420.242188 106.992188 419.140625 107.617188 418.070312 C 108.566406 418.78125 109.5 419.460938 110.300781 420.222656 C 110.703125 420.601562 111.082031 420.992188 111.4375 421.394531 C 111.796875 421.792969 112.160156 422.171875 112.480469 422.574219 C 113.136719 423.371094 113.6875 424.210938 114.15625 425.0625 C 114.648438 425.878906 115.046875 426.714844 115.347656 427.550781 C 115.648438 428.382812 115.835938 429.234375 115.953125 430.023438 C 116.066406 430.8125 116.074219 431.578125 115.960938 432.300781 C 115.738281 433.75 115.046875 435.015625 113.769531 435.886719 Z M 133.550781 446.78125 C 133.25 446.371094 132.917969 445.910156 132.558594 445.417969 C 132.210938 444.914062 131.835938 444.371094 131.441406 443.800781 C 131.050781 443.238281 130.644531 442.652344 130.21875 442.042969 C 130.011719 441.742188 129.796875 441.441406 129.582031 441.128906 C 129.367188 440.824219 129.164062 440.488281 128.953125 440.164062 C 128.535156 439.523438 128.109375 438.867188 127.683594 438.207031 C 127.472656 437.882812 127.257812 437.554688 127.046875 437.230469 L 126.730469 436.746094 L 126.429688 436.242188 C 125.636719 434.9375 124.855469 433.644531 124.117188 432.429688 C 124.652344 433.722656 125.289062 435.089844 125.980469 436.496094 C 126.316406 437.210938 126.699219 437.886719 127.085938 438.5625 C 127.472656 439.238281 127.867188 439.914062 128.269531 440.582031 C 129.058594 441.9375 129.925781 443.132812 130.730469 444.261719 C 131.136719 444.824219 131.53125 445.355469 131.90625 445.851562 C 132.28125 446.359375 132.660156 446.769531 133 447.167969 C 129.886719 448.421875 126.398438 446.671875 124.265625 443.292969 C 123.714844 442.476562 123.28125 441.507812 122.9375 440.484375 C 122.59375 439.464844 122.351562 438.378906 122.222656 437.25 C 122.085938 436.132812 122.09375 434.925781 122.226562 433.707031 C 122.355469 432.492188 122.609375 431.253906 123 430.011719 C 124.164062 430.46875 125.214844 431.042969 126.242188 431.582031 C 126.746094 431.867188 127.230469 432.167969 127.691406 432.488281 C 128.152344 432.800781 128.578125 433.160156 129.015625 433.472656 C 129.878906 434.121094 130.648438 434.832031 131.328125 435.582031 C 131.5 435.769531 131.664062 435.960938 131.820312 436.15625 C 131.984375 436.335938 132.144531 436.523438 132.296875 436.707031 C 132.601562 437.082031 132.878906 437.460938 133.136719 437.851562 C 133.644531 438.628906 134.054688 439.429688 134.351562 440.234375 C 134.648438 441.039062 134.855469 441.796875 134.914062 442.570312 C 135.042969 444.101562 134.648438 445.574219 133.550781 446.78125 Z M 157.132812 452.941406 C 155.453125 451.589844 153.105469 449.558594 150.699219 447.449219 C 149.527344 446.359375 148.316406 445.230469 147.117188 444.117188 C 145.960938 442.953125 144.839844 441.835938 143.796875 440.824219 C 144.671875 441.988281 145.664062 443.230469 146.726562 444.488281 C 147.796875 445.710938 148.957031 446.882812 150.117188 448.042969 C 150.695312 448.636719 151.285156 449.15625 151.871094 449.667969 C 152.453125 450.175781 153.027344 450.667969 153.589844 451.136719 C 154.148438 451.597656 154.6875 452.0625 155.207031 452.441406 C 155.726562 452.820312 156.21875 453.167969 156.671875 453.480469 C 155.960938 454 155.175781 454.367188 154.351562 454.539062 C 153.53125 454.691406 152.667969 454.6875 151.792969 454.53125 C 151.359375 454.457031 150.921875 454.34375 150.484375 454.199219 C 150.046875 454.054688 149.613281 453.871094 149.191406 453.628906 C 148.34375 453.15625 147.519531 452.554688 146.753906 451.84375 C 146.371094 451.488281 146 451.105469 145.648438 450.695312 C 145.300781 450.277344 144.976562 449.8125 144.667969 449.335938 C 144.054688 448.382812 143.527344 447.335938 143.105469 446.214844 C 142.894531 445.65625 142.710938 445.078125 142.558594 444.488281 C 142.410156 443.882812 142.289062 443.253906 142.199219 442.617188 C 142.023438 441.339844 141.96875 440.011719 142.050781 438.644531 C 142.699219 438.730469 143.324219 438.847656 143.933594 438.988281 C 144.546875 439.125 145.15625 439.238281 145.734375 439.402344 C 146.320312 439.5625 146.882812 439.746094 147.433594 439.953125 C 147.707031 440.058594 147.972656 440.167969 148.238281 440.28125 C 148.507812 440.378906 148.773438 440.484375 149.03125 440.59375 C 150.070312 441.035156 151.035156 441.558594 151.917969 442.152344 C 152.808594 442.714844 153.625 443.304688 154.34375 443.972656 C 155.0625 444.625 155.683594 445.363281 156.203125 446.070312 C 156.722656 446.78125 157.128906 447.527344 157.398438 448.292969 C 157.933594 449.820312 157.925781 451.421875 157.132812 452.941406 Z M 87.386719 304.160156 C 87.371094 302.839844 87.566406 301.027344 87.828125 299.003906 C 87.898438 298.5 87.972656 297.980469 88.046875 297.460938 C 88.085938 297.199219 88.121094 296.933594 88.171875 296.675781 L 88.328125 295.90625 C 88.546875 294.882812 88.78125 293.859375 89.023438 292.898438 C 88.824219 294.847656 88.5 296.96875 88.335938 299.011719 C 88.234375 300.011719 88.136719 300.972656 88.042969 301.847656 C 87.996094 302.28125 87.949219 302.691406 87.90625 303.074219 C 87.871094 303.464844 87.839844 303.824219 87.808594 304.148438 C 88.3125 304.03125 88.742188 303.808594 89.152344 303.535156 C 89.558594 303.261719 89.910156 302.910156 90.207031 302.496094 C 90.796875 301.667969 91.164062 300.585938 91.300781 299.34375 C 91.636719 296.925781 91.09375 293.851562 89.367188 291.050781 C 88.003906 292.296875 86.902344 293.691406 86.101562 295.082031 C 85.351562 296.511719 84.90625 297.941406 84.753906 299.214844 C 84.679688 299.851562 84.671875 300.445312 84.75 300.996094 C 84.839844 301.554688 85 302.054688 85.226562 302.488281 C 85.683594 303.355469 86.410156 303.941406 87.386719 304.160156 Z M 80.308594 316.792969 C 80.121094 315.359375 80.007812 313.304688 79.953125 311 C 79.929688 310.417969 79.960938 309.847656 79.980469 309.261719 C 80.003906 308.679688 80.03125 308.085938 80.066406 307.492188 C 80.140625 306.316406 80.210938 305.117188 80.355469 304.011719 C 80.40625 306.175781 80.460938 308.632812 80.511719 310.929688 C 80.636719 313.21875 80.730469 315.28125 80.753906 316.726562 C 81.851562 316.300781 82.65625 315.527344 83.164062 314.507812 C 83.417969 314 83.601562 313.425781 83.710938 312.808594 C 83.816406 312.183594 83.90625 311.542969 83.898438 310.851562 C 83.890625 309.472656 83.601562 307.953125 83.023438 306.40625 C 82.46875 304.878906 81.664062 303.347656 80.507812 301.929688 C 80.160156 302.324219 79.832031 302.722656 79.527344 303.128906 C 79.375 303.332031 79.222656 303.535156 79.082031 303.742188 C 78.949219 303.953125 78.824219 304.167969 78.699219 304.378906 C 78.210938 305.234375 77.800781 306.09375 77.472656 306.941406 C 77.308594 307.363281 77.164062 307.785156 77.042969 308.199219 C 76.980469 308.40625 76.925781 308.609375 76.875 308.8125 C 76.832031 309.023438 76.792969 309.230469 76.761719 309.433594 C 76.628906 310.25 76.578125 311.027344 76.601562 311.753906 C 76.652344 313.203125 77 314.425781 77.632812 315.304688 C 78.285156 316.191406 79.191406 316.722656 80.308594 316.792969 Z M 74.96875 330.980469 C 74.761719 330.210938 74.53125 329.269531 74.296875 328.203125 C 74.183594 327.667969 74.0625 327.105469 73.945312 326.515625 C 73.835938 325.925781 73.695312 325.304688 73.625 324.6875 C 73.457031 323.441406 73.300781 322.128906 73.175781 320.8125 C 73.117188 320.15625 73.039062 319.488281 73.015625 318.84375 C 72.996094 318.203125 72.980469 317.566406 72.972656 316.945312 C 73.289062 319.328125 73.835938 322.066406 74.242188 324.519531 C 74.292969 324.824219 74.34375 325.128906 74.394531 325.429688 C 74.460938 325.730469 74.523438 326.027344 74.582031 326.324219 C 74.703125 326.90625 74.820312 327.472656 74.929688 328.011719 C 75.148438 329.078125 75.332031 330.035156 75.46875 330.820312 C 77.742188 329.53125 78.351562 326.882812 77.921875 323.875 C 77.371094 320.839844 75.777344 317.386719 72.785156 314.605469 C 72.164062 315.589844 71.628906 316.597656 71.191406 317.605469 C 71.082031 317.855469 70.972656 318.105469 70.878906 318.359375 C 70.792969 318.613281 70.710938 318.871094 70.636719 319.121094 C 70.484375 319.628906 70.355469 320.132812 70.25 320.628906 C 70.035156 321.625 69.910156 322.585938 69.863281 323.496094 C 69.824219 324.40625 69.929688 325.285156 70.070312 326.078125 C 70.667969 329.265625 72.46875 331.199219 74.96875 330.980469 Z M 71.800781 346.546875 C 71.441406 345.753906 71.023438 344.773438 70.582031 343.65625 C 70.359375 343.09375 70.132812 342.5 69.902344 341.878906 C 69.789062 341.570312 69.664062 341.25 69.558594 340.929688 C 69.460938 340.605469 69.359375 340.28125 69.257812 339.949219 C 68.855469 338.625 68.460938 337.21875 68.089844 335.800781 C 67.890625 335.089844 67.757812 334.386719 67.621094 333.6875 C 67.488281 332.992188 67.363281 332.300781 67.246094 331.621094 C 67.445312 332.261719 67.648438 332.921875 67.859375 333.59375 C 67.960938 333.925781 68.0625 334.265625 68.167969 334.601562 C 68.265625 334.9375 68.375 335.277344 68.5 335.621094 C 68.960938 336.972656 69.433594 338.339844 69.886719 339.660156 C 70.117188 340.3125 70.304688 340.941406 70.550781 341.558594 C 70.785156 342.171875 71.011719 342.765625 71.226562 343.328125 C 71.652344 344.453125 72.027344 345.453125 72.316406 346.28125 C 73.421875 345.382812 74.042969 344.191406 74.238281 342.824219 C 74.285156 342.484375 74.304688 342.128906 74.304688 341.769531 C 74.316406 341.410156 74.308594 341.042969 74.269531 340.664062 C 74.199219 339.914062 74.027344 339.128906 73.761719 338.328125 C 73.5 337.53125 73.121094 336.707031 72.691406 335.894531 C 72.28125 335.082031 71.777344 334.269531 71.1875 333.476562 C 70.011719 331.886719 68.492188 330.363281 66.648438 329.101562 C 64.558594 333.824219 64.402344 338.734375 65.628906 342.082031 C 66.84375 345.457031 69.128906 347.230469 71.800781 346.546875 Z M 71.1875 363.230469 C 70.621094 362.445312 70.03125 361.460938 69.347656 360.335938 C 69.011719 359.773438 68.664062 359.175781 68.304688 358.546875 C 67.9375 357.921875 67.605469 357.265625 67.277344 356.585938 C 66.609375 355.230469 65.933594 353.78125 65.285156 352.316406 C 64.671875 350.851562 64.15625 349.371094 63.660156 347.949219 C 64.304688 349.253906 64.992188 350.640625 65.691406 352.050781 C 66.429688 353.425781 67.179688 354.816406 67.902344 356.160156 C 68.265625 356.824219 68.582031 357.46875 68.949219 358.089844 C 69.308594 358.707031 69.65625 359.304688 69.988281 359.875 C 70.644531 361.007812 71.214844 362.015625 71.679688 362.855469 C 72.699219 361.683594 73.164062 360.292969 73.128906 358.792969 C 73.121094 358.414062 73.074219 358.03125 73.019531 357.644531 C 72.96875 357.257812 72.894531 356.863281 72.789062 356.464844 C 72.578125 355.667969 72.253906 354.859375 71.824219 354.042969 C 71.609375 353.636719 71.367188 353.230469 71.101562 352.824219 C 70.96875 352.621094 70.832031 352.417969 70.6875 352.214844 C 70.554688 352.011719 70.410156 351.8125 70.265625 351.609375 C 69.679688 350.8125 68.996094 350.023438 68.222656 349.265625 C 67.453125 348.511719 66.589844 347.785156 65.648438 347.121094 C 64.703125 346.453125 63.675781 345.84375 62.605469 345.320312 C 62.554688 345.492188 62.507812 345.660156 62.457031 345.828125 C 62.421875 346 62.386719 346.171875 62.347656 346.339844 C 62.28125 346.683594 62.214844 347.019531 62.160156 347.359375 C 62.046875 348.035156 61.960938 348.707031 61.902344 349.371094 C 61.84375 350.035156 61.808594 350.6875 61.800781 351.328125 C 61.78125 351.964844 61.855469 352.597656 61.914062 353.207031 C 62.199219 355.65625 62.765625 357.828125 63.761719 359.53125 C 64.710938 361.238281 65.871094 362.476562 67.152344 363.125 C 68.457031 363.773438 69.84375 363.832031 71.1875 363.230469 Z M 73.570312 380.640625 C 72.839844 379.910156 71.960938 378.988281 71.011719 377.917969 C 70.113281 376.839844 69.132812 375.613281 68.125 374.292969 C 67.605469 373.632812 67.136719 372.945312 66.664062 372.238281 C 66.1875 371.53125 65.714844 370.808594 65.246094 370.082031 C 64.277344 368.625 63.476562 367.128906 62.707031 365.683594 C 64.519531 368.289062 66.710938 371.15625 68.699219 373.726562 C 69.722656 374.984375 70.714844 376.199219 71.617188 377.304688 C 72.042969 377.855469 72.507812 378.359375 72.914062 378.835938 C 73.316406 379.308594 73.691406 379.75 74.03125 380.152344 C 74.878906 378.714844 75.03125 377.164062 74.78125 375.558594 C 74.644531 374.757812 74.367188 373.953125 73.96875 373.148438 C 73.867188 372.949219 73.757812 372.746094 73.644531 372.546875 C 73.539062 372.347656 73.425781 372.144531 73.308594 371.941406 C 73.070312 371.542969 72.800781 371.140625 72.503906 370.746094 C 71.914062 369.953125 71.210938 369.175781 70.40625 368.429688 C 69.996094 368.058594 69.59375 367.6875 69.164062 367.332031 C 68.734375 366.972656 68.277344 366.625 67.800781 366.289062 C 65.902344 364.945312 63.613281 363.792969 61.113281 363.050781 C 60.851562 366.109375 61.046875 369.074219 61.800781 371.65625 C 62.453125 374.25 63.648438 376.453125 64.929688 378.109375 C 65.257812 378.527344 65.578125 378.910156 65.933594 379.25 C 66.292969 379.589844 66.65625 379.898438 67.027344 380.164062 C 67.761719 380.699219 68.515625 381.085938 69.261719 381.308594 C 70.757812 381.753906 72.238281 381.546875 73.570312 380.640625 Z M 79.390625 398.289062 C 77.488281 397.066406 74.996094 395.066406 72.347656 392.648438 C 71.078125 391.421875 69.722656 390.109375 68.464844 388.734375 C 67.242188 387.347656 66.019531 385.929688 64.925781 384.539062 C 66.160156 385.722656 67.480469 386.988281 68.816406 388.273438 C 69.460938 388.910156 70.171875 389.523438 70.851562 390.136719 C 71.527344 390.738281 72.199219 391.339844 72.863281 391.929688 C 73.1875 392.21875 73.511719 392.507812 73.828125 392.792969 C 74.164062 393.070312 74.492188 393.339844 74.816406 393.609375 C 75.453125 394.140625 76.070312 394.652344 76.660156 395.144531 C 77.246094 395.628906 77.78125 396.09375 78.304688 396.515625 C 78.832031 396.933594 79.320312 397.324219 79.765625 397.675781 C 80.066406 396.832031 80.15625 396 80.140625 395.160156 C 80.128906 394.316406 79.957031 393.484375 79.640625 392.671875 C 78.964844 391.058594 77.875 389.464844 76.277344 388.03125 C 75.886719 387.671875 75.445312 387.324219 75.011719 386.980469 C 74.578125 386.632812 74.121094 386.300781 73.636719 385.976562 C 72.667969 385.332031 71.597656 384.734375 70.441406 384.207031 C 69.269531 383.683594 68.082031 383.210938 66.804688 382.832031 C 65.527344 382.453125 64.179688 382.167969 62.78125 382.007812 C 62.910156 383.671875 63.125 385.296875 63.574219 386.808594 C 63.785156 387.566406 64.015625 388.304688 64.269531 389.019531 C 64.527344 389.734375 64.789062 390.425781 65.125 391.074219 C 65.777344 392.378906 66.492188 393.574219 67.25 394.628906 C 67.617188 395.160156 68.054688 395.640625 68.472656 396.089844 C 68.894531 396.539062 69.320312 396.953125 69.75 397.328125 C 70.617188 398.078125 71.476562 398.679688 72.359375 399.101562 C 73.253906 399.519531 74.132812 399.777344 74.96875 399.859375 C 76.648438 400.03125 78.171875 399.511719 79.390625 398.289062 Z M 89.046875 415.46875 C 88.496094 415.238281 87.886719 414.972656 87.226562 414.675781 C 86.566406 414.375 85.851562 414.050781 85.144531 413.660156 C 84.425781 413.277344 83.664062 412.867188 82.878906 412.425781 C 82.484375 412.199219 82.085938 411.972656 81.679688 411.742188 C 81.476562 411.625 81.269531 411.503906 81.066406 411.386719 C 80.867188 411.261719 80.667969 411.132812 80.46875 411.007812 C 79.667969 410.492188 78.851562 409.957031 78.027344 409.402344 C 77.207031 408.84375 76.355469 408.28125 75.578125 407.664062 C 74.785156 407.058594 73.996094 406.441406 73.222656 405.820312 C 72.835938 405.507812 72.449219 405.195312 72.074219 404.886719 C 71.695312 404.578125 71.351562 404.25 70.996094 403.933594 C 74.082031 406.015625 77.578125 408.246094 80.859375 410.144531 C 81.261719 410.382812 81.664062 410.617188 82.058594 410.851562 C 82.464844 411.074219 82.867188 411.292969 83.265625 411.511719 C 84.042969 411.9375 84.800781 412.351562 85.519531 412.742188 C 86.921875 413.542969 88.265625 414.183594 89.324219 414.75 C 89.453125 413.804688 89.398438 412.894531 89.175781 412.035156 C 88.980469 411.152344 88.632812 410.308594 88.128906 409.523438 C 87.089844 407.96875 85.605469 406.523438 83.628906 405.34375 C 82.625 404.765625 81.597656 404.195312 80.433594 403.71875 C 79.28125 403.238281 78.027344 402.828125 76.699219 402.503906 C 74.113281 401.824219 71.21875 401.480469 68.195312 401.6875 C 68.4375 402.550781 68.710938 403.402344 69.007812 404.226562 C 69.308594 405.050781 69.617188 405.859375 70.015625 406.613281 C 70.78125 408.128906 71.605469 409.554688 72.535156 410.816406 C 73.492188 412.0625 74.5 413.175781 75.523438 414.136719 C 76.019531 414.625 76.585938 415.039062 77.113281 415.429688 C 77.652344 415.816406 78.191406 416.167969 78.722656 416.472656 C 80.820312 417.722656 82.964844 418.222656 84.75 418.050781 C 86.542969 417.878906 88.027344 417.011719 89.046875 415.46875 Z M 102.820312 431.328125 C 101.578125 431.082031 100.066406 430.722656 98.359375 430.277344 C 97.9375 430.160156 97.488281 430.050781 97.054688 429.914062 C 96.617188 429.773438 96.171875 429.628906 95.714844 429.480469 C 94.804688 429.179688 93.859375 428.859375 92.890625 428.515625 C 91.902344 428.183594 90.960938 427.769531 89.980469 427.363281 C 89.003906 426.949219 88.019531 426.519531 87.03125 426.074219 C 86.0625 425.613281 85.121094 425.121094 84.179688 424.628906 C 83.25 424.132812 82.308594 423.644531 81.433594 423.125 C 83.277344 423.882812 85.253906 424.65625 87.195312 425.4375 C 89.195312 426.167969 91.1875 426.886719 93.089844 427.542969 C 95.042969 428.15625 96.867188 428.75 98.535156 429.25 C 100.230469 429.722656 101.726562 430.144531 102.945312 430.511719 C 102.667969 426.402344 99.5 423.613281 94.960938 421.910156 C 92.632812 421.113281 90.03125 420.53125 87.117188 420.410156 C 85.652344 420.355469 84.191406 420.359375 82.671875 420.503906 C 81.152344 420.648438 79.601562 420.917969 78.046875 421.339844 C 78.925781 423.058594 79.871094 424.710938 81.015625 426.132812 C 82.136719 427.574219 83.289062 428.910156 84.578125 430.003906 C 85.210938 430.5625 85.847656 431.082031 86.484375 431.566406 C 86.804688 431.804688 87.125 432.035156 87.441406 432.257812 C 87.769531 432.46875 88.101562 432.667969 88.429688 432.855469 C 89.746094 433.613281 91.039062 434.210938 92.273438 434.636719 C 94.804688 435.433594 97.109375 435.53125 98.925781 434.972656 C 100.753906 434.402344 102.121094 433.148438 102.820312 431.328125 Z M 120.898438 444.664062 C 120.222656 444.6875 119.46875 444.703125 118.644531 444.707031 C 117.828125 444.703125 116.921875 444.71875 116.007812 444.648438 C 115.082031 444.59375 114.101562 444.523438 113.078125 444.433594 C 112.566406 444.386719 112.042969 444.339844 111.511719 444.292969 C 110.976562 444.246094 110.457031 444.15625 109.917969 444.082031 C 107.777344 443.761719 105.476562 443.414062 103.273438 442.863281 C 102.160156 442.605469 101.039062 442.335938 99.941406 442.042969 C 98.863281 441.722656 97.800781 441.390625 96.765625 441.054688 C 97.800781 441.246094 98.871094 441.445312 99.964844 441.644531 C 101.054688 441.835938 102.1875 441.992188 103.296875 442.164062 C 104.417969 442.324219 105.511719 442.511719 106.625 442.644531 C 107.734375 442.769531 108.832031 442.894531 109.914062 443.015625 C 112.03125 443.28125 114.128906 443.382812 115.960938 443.53125 C 116.417969 443.566406 116.867188 443.597656 117.300781 443.632812 C 117.734375 443.660156 118.167969 443.671875 118.578125 443.691406 C 119.390625 443.730469 120.144531 443.765625 120.832031 443.800781 C 120.511719 442.761719 120.019531 441.847656 119.378906 441.066406 C 118.75 440.269531 118.003906 439.554688 117.109375 438.984375 C 116.664062 438.699219 116.1875 438.441406 115.683594 438.214844 C 115.171875 437.992188 114.664062 437.753906 114.113281 437.570312 C 113.015625 437.191406 111.804688 436.929688 110.507812 436.78125 C 109.238281 436.589844 107.878906 436.511719 106.453125 436.554688 C 105.742188 436.570312 105.003906 436.625 104.265625 436.695312 C 103.539062 436.753906 102.792969 436.84375 102.039062 436.964844 C 100.53125 437.207031 98.984375 437.570312 97.425781 438.070312 C 95.855469 438.582031 94.335938 439.167969 92.8125 439.949219 C 93.132812 440.355469 93.457031 440.757812 93.785156 441.148438 C 94.132812 441.527344 94.480469 441.894531 94.835938 442.25 C 95.542969 442.96875 96.265625 443.652344 97.003906 444.296875 C 97.726562 444.957031 98.515625 445.507812 99.285156 446.046875 C 100.058594 446.585938 100.839844 447.082031 101.613281 447.535156 C 101.808594 447.648438 102.003906 447.757812 102.195312 447.871094 C 102.394531 447.96875 102.59375 448.066406 102.792969 448.164062 C 103.1875 448.359375 103.585938 448.539062 103.976562 448.710938 C 104.765625 449.054688 105.542969 449.355469 106.304688 449.617188 C 106.6875 449.746094 107.058594 449.871094 107.4375 449.972656 C 107.820312 450.070312 108.199219 450.15625 108.570312 450.234375 C 109.316406 450.382812 110.039062 450.496094 110.738281 450.566406 C 112.136719 450.707031 113.429688 450.691406 114.621094 450.457031 C 115.804688 450.242188 116.847656 449.875 117.730469 449.363281 C 119.492188 448.339844 120.59375 446.742188 120.898438 444.664062 Z M 143.128906 454.128906 C 142.4375 454.328125 141.664062 454.535156 140.820312 454.75 C 139.976562 454.960938 139.054688 455.191406 138.089844 455.351562 C 137.125 455.527344 136.09375 455.707031 135.015625 455.875 C 134.472656 455.957031 133.917969 456.046875 133.359375 456.117188 C 132.800781 456.175781 132.234375 456.230469 131.664062 456.289062 C 130.511719 456.398438 129.324219 456.492188 128.113281 456.578125 C 126.910156 456.644531 125.707031 456.648438 124.480469 456.664062 C 122.019531 456.722656 119.613281 456.546875 117.289062 456.367188 C 118.410156 456.308594 119.574219 456.25 120.757812 456.191406 C 121.347656 456.15625 121.929688 456.144531 122.53125 456.089844 C 123.125 456.039062 123.726562 455.988281 124.328125 455.9375 C 125.511719 455.832031 126.703125 455.726562 127.890625 455.621094 C 129.070312 455.496094 130.246094 455.328125 131.382812 455.1875 C 131.945312 455.113281 132.503906 455.042969 133.058594 454.96875 C 133.605469 454.902344 134.148438 454.828125 134.683594 454.726562 C 135.746094 454.546875 136.769531 454.375 137.75 454.207031 C 139.671875 453.914062 141.417969 453.507812 142.828125 453.246094 C 142.234375 452.261719 141.496094 451.453125 140.640625 450.816406 C 139.796875 450.140625 138.84375 449.613281 137.78125 449.253906 C 137.25 449.070312 136.695312 448.933594 136.117188 448.824219 C 135.550781 448.695312 134.957031 448.601562 134.34375 448.546875 C 133.730469 448.492188 133.097656 448.472656 132.441406 448.488281 C 131.789062 448.503906 131.113281 448.570312 130.4375 448.617188 C 129.082031 448.742188 127.660156 449.003906 126.191406 449.398438 C 125.453125 449.605469 124.722656 449.808594 123.980469 450.050781 C 123.242188 450.292969 122.492188 450.566406 121.738281 450.878906 C 120.242188 451.488281 118.707031 452.269531 117.234375 453.121094 C 115.757812 453.984375 114.300781 454.984375 112.917969 456.144531 C 113.789062 456.824219 114.664062 457.492188 115.574219 458.070312 C 116.488281 458.636719 117.414062 459.160156 118.34375 459.640625 C 120.179688 460.644531 122.101562 461.308594 123.941406 461.875 C 124.402344 462.011719 124.859375 462.136719 125.3125 462.257812 C 125.773438 462.359375 126.230469 462.445312 126.683594 462.523438 C 127.585938 462.679688 128.472656 462.800781 129.328125 462.875 C 131.035156 463.058594 132.683594 462.953125 134.164062 462.753906 C 137.125 462.378906 139.53125 461.246094 141.078125 459.757812 C 142.632812 458.261719 143.351562 456.339844 143.128906 454.128906 Z M 168.988281 458.035156 C 167.683594 458.800781 166.050781 459.699219 164.160156 460.65625 C 163.21875 461.089844 162.214844 461.539062 161.152344 461.996094 C 160.621094 462.222656 160.078125 462.449219 159.527344 462.683594 C 159.246094 462.796875 158.964844 462.914062 158.683594 463.027344 C 158.402344 463.132812 158.117188 463.234375 157.832031 463.339844 C 155.535156 464.144531 153.058594 465.027344 150.5625 465.628906 C 149.3125 465.949219 148.042969 466.285156 146.789062 466.546875 C 145.539062 466.789062 144.296875 467.011719 143.074219 467.214844 C 144.214844 466.871094 145.394531 466.511719 146.597656 466.144531 C 147.191406 465.972656 147.792969 465.757812 148.398438 465.550781 C 148.996094 465.34375 149.597656 465.136719 150.203125 464.929688 C 150.800781 464.71875 151.398438 464.511719 152 464.304688 C 152.59375 464.097656 153.183594 463.898438 153.777344 463.65625 C 154.941406 463.195312 156.101562 462.738281 157.242188 462.289062 C 157.800781 462.066406 158.355469 461.84375 158.902344 461.625 C 159.445312 461.386719 159.980469 461.148438 160.507812 460.914062 C 161.542969 460.453125 162.546875 460.007812 163.503906 459.582031 C 163.738281 459.476562 163.972656 459.371094 164.203125 459.269531 C 164.429688 459.160156 164.65625 459.046875 164.878906 458.941406 C 165.324219 458.722656 165.753906 458.515625 166.167969 458.3125 C 166.988281 457.917969 167.753906 457.550781 168.445312 457.21875 C 166.683594 455.503906 164.546875 454.742188 162.1875 454.503906 C 161.597656 454.457031 160.992188 454.457031 160.375 454.503906 C 160.0625 454.523438 159.75 454.566406 159.433594 454.601562 C 159.121094 454.628906 158.800781 454.667969 158.480469 454.722656 C 157.199219 454.925781 155.867188 455.304688 154.503906 455.84375 C 153.148438 456.332031 151.765625 456.957031 150.367188 457.746094 C 149.671875 458.132812 148.964844 458.589844 148.273438 459.015625 C 147.578125 459.453125 146.882812 459.929688 146.195312 460.441406 C 144.816406 461.460938 143.457031 462.625 142.15625 463.925781 C 140.867188 465.1875 139.636719 466.582031 138.519531 468.128906 C 142.824219 470.085938 147.320312 470.957031 151.414062 471.101562 C 151.921875 471.132812 152.429688 471.121094 152.933594 471.101562 C 153.433594 471.082031 153.925781 471.054688 154.414062 471.015625 C 155.386719 470.941406 156.324219 470.832031 157.226562 470.6875 C 157.453125 470.648438 157.675781 470.609375 157.894531 470.574219 C 158.117188 470.519531 158.335938 470.46875 158.554688 470.417969 C 158.988281 470.3125 159.410156 470.195312 159.820312 470.074219 C 160.644531 469.828125 161.425781 469.554688 162.160156 469.253906 C 162.894531 468.945312 163.574219 468.644531 164.210938 468.253906 C 164.84375 467.875 165.425781 467.472656 165.953125 467.054688 C 167.003906 466.214844 167.835938 465.296875 168.425781 464.328125 C 169.609375 462.390625 169.816406 460.238281 168.988281 458.035156 Z M 93.851562 294.578125 C 94.335938 293.976562 94.941406 293.261719 95.621094 292.476562 C 95.964844 292.085938 96.324219 291.675781 96.695312 291.25 C 96.886719 291.042969 97.070312 290.824219 97.273438 290.617188 C 97.476562 290.410156 97.6875 290.203125 97.894531 289.996094 C 98.738281 289.160156 99.621094 288.304688 100.5 287.472656 C 100.929688 287.042969 101.410156 286.675781 101.859375 286.292969 C 102.316406 285.917969 102.761719 285.554688 103.195312 285.199219 C 102.808594 285.601562 102.410156 286.019531 102 286.445312 C 101.597656 286.871094 101.15625 287.277344 100.761719 287.738281 C 99.949219 288.632812 99.121094 289.53125 98.3125 290.386719 C 98.105469 290.601562 97.90625 290.8125 97.707031 291.019531 C 97.511719 291.230469 97.328125 291.453125 97.144531 291.660156 C 96.773438 292.082031 96.414062 292.488281 96.070312 292.875 C 95.382812 293.644531 94.75 294.328125 94.214844 294.882812 C 95.257812 295.402344 96.386719 295.425781 97.480469 295.0625 C 98.027344 294.882812 98.5625 294.601562 99.082031 294.234375 C 99.605469 293.871094 100.085938 293.402344 100.597656 292.910156 C 101.597656 291.898438 102.457031 290.558594 103.171875 289.003906 C 103.917969 287.488281 104.476562 285.71875 104.757812 283.757812 C 102.824219 283.835938 100.964844 284.296875 99.304688 285 C 97.679688 285.742188 96.300781 286.765625 95.230469 287.859375 C 94.683594 288.394531 94.273438 289.003906 93.941406 289.601562 C 93.613281 290.195312 93.378906 290.796875 93.25 291.378906 C 92.992188 292.550781 93.167969 293.65625 93.851562 294.578125 " fill-opacity="1" fill-rule="evenodd"/></g><g clip-path="url(#bf806daea4)"><path fill="#5271ff" d="M 249.351562 301.832031 C 248.472656 301.503906 247.582031 300.960938 246.765625 300.21875 C 246.367188 299.839844 245.9375 299.449219 245.550781 299 C 245.160156 298.550781 244.796875 298.050781 244.46875 297.5 C 245.613281 296.953125 246.789062 296.660156 247.910156 296.589844 C 249.027344 296.523438 250.117188 296.652344 250.992188 297.015625 C 252.765625 297.71875 253.980469 299.085938 253.761719 300.691406 C 252.863281 300.238281 251.503906 299.71875 250.085938 299.199219 C 249.375 298.941406 248.640625 298.683594 247.914062 298.457031 C 247.164062 298.246094 246.425781 298.054688 245.738281 297.894531 C 246.394531 298.15625 247.113281 298.421875 247.835938 298.699219 C 248.550781 298.992188 249.269531 299.285156 249.964844 299.570312 C 250.675781 299.851562 251.363281 300.117188 251.984375 300.359375 C 252.300781 300.480469 252.601562 300.59375 252.882812 300.699219 C 253.15625 300.808594 253.414062 300.910156 253.640625 301 C 252.753906 302.335938 251.121094 302.464844 249.351562 301.832031 Z M 256.199219 312.703125 C 254.449219 311.671875 252.617188 309.839844 251.546875 307.234375 C 252.902344 306.789062 254.199219 306.660156 255.429688 306.753906 C 256.65625 306.847656 257.789062 307.183594 258.738281 307.683594 C 259.707031 308.175781 260.410156 308.875 260.84375 309.652344 C 261.277344 310.433594 261.425781 311.292969 261.195312 312.152344 C 260.257812 311.53125 258.902344 310.71875 257.445312 309.921875 C 255.945312 309.152344 254.300781 308.425781 252.871094 307.851562 C 253.539062 308.242188 254.261719 308.65625 255.007812 309.066406 C 255.382812 309.273438 255.761719 309.480469 256.136719 309.6875 C 256.519531 309.894531 256.894531 310.097656 257.246094 310.3125 C 258.675781 311.15625 260.039062 311.941406 261.03125 312.464844 C 259.878906 313.765625 257.984375 313.691406 256.199219 312.703125 Z M 261.65625 324.914062 C 260.808594 324.21875 259.898438 323.324219 259.1875 322.203125 C 258.824219 321.644531 258.503906 321.035156 258.226562 320.375 C 257.9375 319.722656 257.65625 319.042969 257.453125 318.300781 C 258.96875 318.035156 260.4375 318.070312 261.777344 318.351562 C 263.09375 318.644531 264.246094 319.199219 265.1875 319.894531 C 265.65625 320.246094 266.070312 320.636719 266.414062 321.046875 C 266.582031 321.253906 266.738281 321.46875 266.875 321.683594 C 267.003906 321.902344 267.101562 322.132812 267.1875 322.359375 C 267.523438 323.28125 267.539062 324.238281 267.140625 325.132812 C 266.6875 324.71875 266.128906 324.230469 265.503906 323.714844 C 265.191406 323.460938 264.863281 323.195312 264.527344 322.917969 C 264.1875 322.648438 263.800781 322.386719 263.425781 322.117188 C 262.671875 321.585938 261.886719 321.054688 261.113281 320.550781 C 260.328125 320.050781 259.59375 319.5625 258.816406 319.167969 C 259.527344 319.667969 260.195312 320.242188 260.9375 320.804688 C 261.683594 321.371094 262.4375 321.949219 263.160156 322.5 C 263.921875 323.050781 264.570312 323.621094 265.210938 324.121094 C 265.839844 324.625 266.417969 325.082031 266.910156 325.449219 C 265.4375 326.675781 263.40625 326.28125 261.65625 324.914062 Z M 265.375 338.382812 C 264.980469 337.9375 264.535156 337.449219 264.167969 336.894531 C 263.792969 336.34375 263.453125 335.734375 263.167969 335.078125 C 262.628906 333.753906 262.121094 332.285156 261.941406 330.632812 C 263.605469 330.585938 265.171875 330.859375 266.558594 331.378906 C 267.246094 331.640625 267.917969 331.957031 268.480469 332.332031 C 269.046875 332.707031 269.554688 333.128906 269.996094 333.585938 C 270.878906 334.496094 271.492188 335.535156 271.75 336.566406 C 271.949219 337.613281 271.796875 338.652344 271.214844 339.546875 C 270.375 338.503906 269.199219 337.078125 267.726562 335.6875 C 266.289062 334.289062 264.769531 332.871094 263.25 331.777344 C 264.589844 333.078125 265.96875 334.613281 267.367188 336.054688 C 267.71875 336.417969 268.0625 336.773438 268.394531 337.117188 C 268.722656 337.460938 269.015625 337.804688 269.3125 338.128906 C 269.902344 338.777344 270.441406 339.363281 270.902344 339.84375 C 269.117188 340.90625 267.007812 340.136719 265.375 338.382812 Z M 266.988281 352.933594 C 266.230469 351.855469 265.582031 350.53125 265.207031 349.039062 C 265.109375 348.664062 265.03125 348.277344 264.964844 347.886719 C 264.878906 347.492188 264.804688 347.089844 264.75 346.679688 C 264.644531 345.859375 264.605469 345 264.652344 344.105469 C 266.433594 344.332031 268.054688 344.886719 269.441406 345.679688 C 270.136719 346.074219 270.773438 346.527344 271.339844 347.019531 C 271.898438 347.515625 272.351562 348.054688 272.746094 348.617188 C 273.527344 349.742188 274 350.960938 274.089844 352.109375 C 274.140625 353.261719 273.777344 354.34375 273.003906 355.199219 C 272.652344 354.5625 272.214844 353.816406 271.714844 353.007812 C 271.476562 352.605469 271.191406 352.1875 270.886719 351.761719 C 270.582031 351.34375 270.269531 350.910156 269.953125 350.46875 C 269.3125 349.597656 268.640625 348.722656 267.96875 347.882812 C 267.277344 347.046875 266.53125 346.257812 265.847656 345.539062 C 266.136719 345.945312 266.441406 346.367188 266.75 346.792969 C 267.058594 347.222656 267.394531 347.660156 267.679688 348.105469 C 268.292969 349.007812 268.910156 349.921875 269.507812 350.804688 C 270.777344 352.578125 271.792969 354.28125 272.613281 355.464844 C 270.527344 356.285156 268.417969 355.085938 266.988281 352.933594 Z M 266.136719 368.292969 C 265.585938 367.027344 265.113281 365.511719 264.960938 363.871094 C 264.855469 362.226562 264.820312 360.429688 265.246094 358.558594 C 267.097656 359.105469 268.71875 359.976562 270.050781 361.058594 C 270.714844 361.597656 271.320312 362.191406 271.820312 362.8125 C 272.304688 363.4375 272.710938 364.089844 273.027344 364.757812 C 273.347656 365.421875 273.578125 366.101562 273.71875 366.765625 C 273.789062 367.097656 273.835938 367.429688 273.859375 367.753906 C 273.867188 368.074219 273.851562 368.390625 273.808594 368.699219 C 273.648438 369.929688 273.101562 371.015625 272.136719 371.78125 C 271.871094 371.042969 271.53125 370.171875 271.136719 369.226562 C 270.742188 368.277344 270.308594 367.261719 269.753906 366.222656 C 269.222656 365.1875 268.660156 364.140625 268.089844 363.136719 C 267.945312 362.886719 267.804688 362.636719 267.65625 362.390625 C 267.5 362.144531 267.34375 361.902344 267.1875 361.664062 C 266.878906 361.183594 266.570312 360.722656 266.265625 360.285156 C 266.507812 360.765625 266.753906 361.261719 267.003906 361.765625 C 267.128906 362.019531 267.265625 362.277344 267.386719 362.539062 C 267.507812 362.796875 267.625 363.058594 267.746094 363.320312 C 268.242188 364.382812 268.746094 365.457031 269.234375 366.496094 C 269.359375 366.757812 269.480469 367.019531 269.601562 367.277344 C 269.714844 367.535156 269.824219 367.789062 269.933594 368.039062 C 270.152344 368.546875 270.363281 369.035156 270.566406 369.5 C 270.976562 370.433594 271.359375 371.285156 271.6875 371.988281 C 269.339844 372.472656 267.304688 370.820312 266.136719 368.292969 Z M 264.34375 387.59375 C 263.476562 386.707031 262.878906 385.472656 262.492188 384.03125 C 262.285156 383.304688 262.148438 382.527344 262.082031 381.714844 C 262.050781 381.308594 262.035156 380.894531 262.042969 380.472656 C 262.054688 380.050781 262.078125 379.621094 262.089844 379.179688 C 262.167969 377.414062 262.667969 375.585938 263.339844 373.683594 C 264.269531 374.140625 265.128906 374.671875 265.910156 375.261719 C 266.691406 375.851562 267.390625 376.503906 267.96875 377.191406 C 269.140625 378.5625 269.964844 380.109375 270.421875 381.640625 C 270.832031 383.160156 270.828125 384.65625 270.46875 385.933594 C 270.375 386.253906 270.265625 386.558594 270.121094 386.84375 C 269.964844 387.128906 269.785156 387.394531 269.585938 387.640625 C 269.183594 388.128906 268.6875 388.539062 268.097656 388.84375 C 267.976562 388.023438 267.804688 387.042969 267.585938 385.976562 C 267.320312 384.898438 267.011719 383.730469 266.671875 382.550781 C 266.503906 381.960938 266.324219 381.363281 266.140625 380.773438 C 265.929688 380.175781 265.710938 379.582031 265.488281 378.996094 C 265.050781 377.832031 264.597656 376.710938 264.144531 375.6875 C 264.433594 376.769531 264.757812 377.933594 265.101562 379.132812 C 265.265625 379.726562 265.460938 380.339844 265.609375 380.941406 C 265.761719 381.546875 265.910156 382.148438 266.058594 382.738281 C 266.351562 383.925781 266.675781 385.097656 266.921875 386.15625 C 267.15625 387.210938 267.378906 388.175781 267.578125 388.976562 C 266.289062 389.003906 265.199219 388.476562 264.34375 387.59375 Z M 256.824219 403.738281 C 256.464844 403.1875 256.1875 402.554688 255.988281 401.867188 C 255.789062 401.179688 255.6875 400.441406 255.609375 399.636719 C 255.542969 398.835938 255.554688 398 255.65625 397.144531 C 255.707031 396.71875 255.777344 396.28125 255.871094 395.847656 C 255.953125 395.40625 256.035156 394.953125 256.15625 394.503906 C 256.386719 393.597656 256.710938 392.691406 257.132812 391.785156 C 257.515625 390.867188 257.972656 389.941406 258.550781 389.035156 C 260.316406 390.351562 261.707031 391.921875 262.707031 393.609375 C 263.6875 395.289062 264.207031 397.050781 264.375 398.746094 C 264.410156 399.164062 264.433594 399.585938 264.414062 399.988281 C 264.386719 400.390625 264.339844 400.78125 264.265625 401.15625 C 264.121094 401.914062 263.886719 402.621094 263.5625 403.25 C 262.9375 404.523438 261.839844 405.417969 260.492188 405.816406 C 260.527344 404.929688 260.566406 403.882812 260.53125 402.714844 C 260.480469 401.535156 260.402344 400.253906 260.289062 398.953125 C 260.203125 397.667969 259.964844 396.296875 259.757812 395 C 259.539062 393.695312 259.3125 392.445312 258.988281 391.265625 C 259.140625 392.476562 259.207031 393.734375 259.324219 395.054688 C 259.378906 395.714844 259.4375 396.382812 259.492188 397.046875 C 259.5625 397.71875 259.570312 398.363281 259.609375 399.019531 C 259.683594 400.34375 259.753906 401.613281 259.820312 402.773438 C 259.847656 403.921875 259.878906 404.976562 259.925781 405.855469 C 258.566406 405.617188 257.539062 404.839844 256.824219 403.738281 Z M 245.21875 414.445312 C 245.339844 413.617188 245.503906 412.734375 245.785156 411.867188 C 245.925781 411.429688 246.085938 410.992188 246.269531 410.558594 C 246.457031 410.125 246.667969 409.695312 246.875 409.242188 C 247.296875 408.351562 247.816406 407.472656 248.4375 406.621094 C 248.757812 406.203125 249.058594 405.761719 249.398438 405.335938 C 249.734375 404.90625 250.097656 404.484375 250.492188 404.074219 C 252.054688 405.804688 253.179688 407.730469 253.867188 409.695312 C 254.503906 411.621094 254.707031 413.589844 254.519531 415.386719 C 254.292969 417.148438 253.644531 418.71875 252.714844 419.90625 C 251.742188 421.054688 250.449219 421.78125 248.96875 421.914062 C 249.191406 420.996094 249.429688 419.890625 249.660156 418.679688 C 249.71875 418.378906 249.78125 418.070312 249.828125 417.75 C 249.875 417.429688 249.917969 417.101562 249.964844 416.765625 C 250.050781 416.101562 250.132812 415.417969 250.210938 414.726562 C 250.285156 414.035156 250.355469 413.335938 250.414062 412.640625 C 250.449219 411.929688 250.476562 411.214844 250.496094 410.515625 C 250.515625 409.8125 250.527344 409.121094 250.527344 408.449219 C 250.523438 408.117188 250.523438 407.785156 250.519531 407.460938 C 250.511719 407.128906 250.488281 406.800781 250.46875 406.480469 C 250.4375 406.796875 250.421875 407.128906 250.378906 407.453125 C 250.339844 407.773438 250.304688 408.101562 250.261719 408.4375 C 250.1875 409.109375 250.109375 409.792969 250.03125 410.484375 C 249.949219 411.175781 249.894531 411.894531 249.792969 412.582031 C 249.691406 413.28125 249.589844 413.972656 249.492188 414.652344 C 249.148438 417.429688 248.636719 419.957031 248.375 421.824219 C 245.679688 420.75 244.734375 417.722656 245.21875 414.445312 Z M 230.496094 432.300781 C 230.382812 431.578125 230.390625 430.8125 230.507812 430.023438 C 230.621094 429.234375 230.808594 428.382812 231.113281 427.550781 C 231.410156 426.714844 231.808594 425.878906 232.300781 425.0625 C 232.769531 424.210938 233.324219 423.371094 233.976562 422.574219 C 234.296875 422.167969 234.660156 421.792969 235.019531 421.394531 C 235.375 420.992188 235.753906 420.601562 236.15625 420.222656 C 236.957031 419.460938 237.894531 418.78125 238.839844 418.070312 C 239.464844 419.140625 239.972656 420.242188 240.347656 421.335938 C 240.710938 422.421875 240.953125 423.515625 241.078125 424.59375 C 241.207031 425.671875 241.21875 426.734375 241.128906 427.757812 C 241.042969 428.789062 240.796875 429.722656 240.496094 430.621094 C 240.183594 431.515625 239.78125 432.339844 239.308594 433.074219 C 238.820312 433.792969 238.234375 434.390625 237.609375 434.886719 C 236.984375 435.375 236.300781 435.75 235.582031 435.972656 C 234.859375 436.1875 234.078125 436.230469 233.289062 436.117188 C 233.519531 435.675781 233.757812 435.191406 234.011719 434.664062 C 234.261719 434.140625 234.496094 433.542969 234.746094 432.9375 C 235.234375 431.707031 235.761719 430.398438 236.21875 428.996094 C 236.664062 427.582031 237.085938 426.132812 237.457031 424.71875 C 237.800781 423.277344 238.070312 421.84375 238.296875 420.535156 C 238.089844 421.171875 237.875 421.832031 237.65625 422.503906 C 237.546875 422.847656 237.4375 423.191406 237.328125 423.539062 L 237.160156 424.066406 L 236.976562 424.578125 C 236.484375 425.984375 235.984375 427.40625 235.5 428.773438 C 234.964844 430.148438 234.453125 431.472656 233.984375 432.671875 C 233.867188 432.980469 233.753906 433.28125 233.640625 433.574219 C 233.523438 433.855469 233.410156 434.132812 233.296875 434.398438 C 233.078125 434.9375 232.875 435.433594 232.6875 435.886719 C 231.410156 435.015625 230.71875 433.75 230.496094 432.300781 Z M 211.542969 442.570312 C 211.601562 441.796875 211.808594 441.039062 212.105469 440.234375 C 212.402344 439.429688 212.8125 438.628906 213.324219 437.851562 C 213.578125 437.460938 213.855469 437.082031 214.164062 436.707031 C 214.3125 436.523438 214.472656 436.335938 214.636719 436.15625 C 214.796875 435.960938 214.957031 435.769531 215.128906 435.582031 C 215.808594 434.832031 216.582031 434.121094 217.441406 433.472656 C 217.878906 433.160156 218.304688 432.800781 218.769531 432.488281 C 219.230469 432.167969 219.710938 431.867188 220.214844 431.582031 C 221.242188 431.042969 222.292969 430.46875 223.457031 430.011719 C 223.847656 431.253906 224.101562 432.492188 224.234375 433.707031 C 224.363281 434.925781 224.371094 436.132812 224.238281 437.25 C 224.109375 438.378906 223.863281 439.464844 223.519531 440.484375 C 223.175781 441.507812 222.742188 442.476562 222.195312 443.292969 C 220.0625 446.671875 216.574219 448.421875 213.457031 447.167969 C 213.796875 446.769531 214.175781 446.359375 214.550781 445.851562 C 214.925781 445.355469 215.324219 444.824219 215.726562 444.261719 C 216.53125 443.132812 217.398438 441.9375 218.1875 440.582031 C 218.589844 439.914062 218.984375 439.238281 219.375 438.5625 C 219.761719 437.886719 220.140625 437.210938 220.480469 436.496094 C 221.167969 435.089844 221.804688 433.722656 222.339844 432.429688 C 221.605469 433.644531 220.820312 434.9375 220.027344 436.242188 L 219.726562 436.746094 L 219.410156 437.230469 C 219.199219 437.554688 218.988281 437.882812 218.777344 438.207031 C 218.347656 438.867188 217.921875 439.523438 217.503906 440.164062 C 217.292969 440.488281 217.089844 440.824219 216.875 441.128906 C 216.660156 441.441406 216.449219 441.742188 216.238281 442.042969 C 215.816406 442.652344 215.40625 443.238281 215.015625 443.800781 C 214.621094 444.371094 214.25 444.914062 213.898438 445.417969 C 213.539062 445.910156 213.207031 446.371094 212.90625 446.78125 C 211.808594 445.574219 211.414062 444.101562 211.542969 442.570312 Z M 189.0625 448.292969 C 189.328125 447.527344 189.734375 446.78125 190.253906 446.070312 C 190.773438 445.363281 191.394531 444.625 192.113281 443.972656 C 192.832031 443.304688 193.652344 442.714844 194.542969 442.152344 C 195.425781 441.558594 196.386719 441.035156 197.425781 440.59375 C 197.683594 440.484375 197.949219 440.378906 198.21875 440.28125 C 198.484375 440.167969 198.75 440.058594 199.027344 439.953125 C 199.570312 439.746094 200.136719 439.5625 200.722656 439.402344 C 201.304688 439.238281 201.910156 439.125 202.523438 438.988281 C 203.132812 438.847656 203.761719 438.730469 204.40625 438.644531 C 204.488281 440.011719 204.433594 441.339844 204.257812 442.617188 C 204.167969 443.253906 204.046875 443.882812 203.898438 444.488281 C 203.746094 445.078125 203.5625 445.65625 203.351562 446.214844 C 202.929688 447.335938 202.402344 448.382812 201.789062 449.335938 C 201.480469 449.8125 201.15625 450.277344 200.808594 450.695312 C 200.457031 451.105469 200.085938 451.488281 199.703125 451.84375 C 198.9375 452.554688 198.117188 453.15625 197.269531 453.628906 C 196.847656 453.871094 196.410156 454.054688 195.972656 454.199219 C 195.539062 454.34375 195.097656 454.457031 194.664062 454.53125 C 193.789062 454.6875 192.929688 454.691406 192.105469 454.539062 C 191.285156 454.367188 190.496094 454 189.789062 453.480469 C 190.238281 453.167969 190.730469 452.820312 191.25 452.441406 C 191.769531 452.0625 192.308594 451.597656 192.871094 451.136719 C 193.429688 450.667969 194.003906 450.175781 194.589844 449.667969 C 195.171875 449.15625 195.765625 448.636719 196.34375 448.042969 C 197.5 446.882812 198.660156 445.710938 199.730469 444.488281 C 200.796875 443.230469 201.785156 441.988281 202.660156 440.824219 C 201.617188 441.835938 200.5 442.953125 199.34375 444.117188 C 198.144531 445.230469 196.929688 446.359375 195.761719 447.449219 C 193.351562 449.558594 191.003906 451.589844 189.328125 452.941406 C 188.53125 451.421875 188.523438 449.820312 189.0625 448.292969 Z M 261.230469 302.488281 C 261.457031 302.054688 261.617188 301.554688 261.707031 300.996094 C 261.785156 300.445312 261.777344 299.851562 261.703125 299.210938 C 261.550781 297.941406 261.105469 296.511719 260.359375 295.082031 C 259.554688 293.691406 258.457031 292.292969 257.089844 291.050781 C 255.363281 293.851562 254.820312 296.925781 255.160156 299.34375 C 255.292969 300.585938 255.660156 301.667969 256.25 302.496094 C 256.546875 302.910156 256.902344 303.261719 257.308594 303.535156 C 257.71875 303.808594 258.144531 304.03125 258.648438 304.152344 C 258.617188 303.824219 258.585938 303.460938 258.550781 303.074219 C 258.507812 302.691406 258.460938 302.28125 258.414062 301.847656 C 258.324219 300.972656 258.222656 300.011719 258.121094 299.011719 C 257.957031 296.96875 257.632812 294.847656 257.433594 292.898438 C 257.675781 293.863281 257.914062 294.882812 258.128906 295.90625 L 258.285156 296.675781 C 258.335938 296.933594 258.371094 297.199219 258.410156 297.460938 C 258.484375 297.980469 258.558594 298.496094 258.628906 299.003906 C 258.894531 301.027344 259.085938 302.839844 259.070312 304.160156 C 260.046875 303.945312 260.773438 303.355469 261.230469 302.488281 Z M 268.824219 315.304688 C 269.457031 314.425781 269.808594 313.203125 269.855469 311.753906 C 269.878906 311.027344 269.828125 310.25 269.695312 309.433594 C 269.664062 309.230469 269.628906 309.023438 269.582031 308.816406 C 269.535156 308.609375 269.476562 308.402344 269.414062 308.199219 C 269.292969 307.785156 269.148438 307.363281 268.984375 306.941406 C 268.65625 306.09375 268.25 305.234375 267.757812 304.378906 C 267.636719 304.167969 267.507812 303.953125 267.375 303.742188 C 267.234375 303.535156 267.085938 303.332031 266.933594 303.128906 C 266.625 302.722656 266.296875 302.324219 265.953125 301.929688 C 264.792969 303.347656 263.988281 304.878906 263.433594 306.40625 C 262.859375 307.949219 262.566406 309.472656 262.5625 310.851562 C 262.550781 311.542969 262.640625 312.183594 262.75 312.804688 C 262.859375 313.425781 263.039062 314 263.296875 314.507812 C 263.804688 315.527344 264.609375 316.300781 265.703125 316.726562 C 265.726562 315.28125 265.820312 313.21875 265.945312 310.929688 C 265.996094 308.632812 266.050781 306.175781 266.101562 304.011719 C 266.25 305.117188 266.316406 306.316406 266.390625 307.492188 C 266.425781 308.085938 266.453125 308.679688 266.476562 309.261719 C 266.496094 309.847656 266.523438 310.417969 266.503906 311 C 266.449219 313.304688 266.339844 315.359375 266.152344 316.796875 C 267.265625 316.722656 268.171875 316.191406 268.824219 315.304688 Z M 276.386719 326.078125 C 276.527344 325.285156 276.632812 324.40625 276.59375 323.496094 C 276.546875 322.585938 276.421875 321.621094 276.207031 320.628906 C 276.101562 320.132812 275.972656 319.628906 275.820312 319.121094 C 275.746094 318.867188 275.664062 318.613281 275.578125 318.359375 C 275.484375 318.105469 275.378906 317.855469 275.269531 317.605469 C 274.828125 316.597656 274.296875 315.589844 273.671875 314.605469 C 270.683594 317.386719 269.089844 320.839844 268.535156 323.875 C 268.105469 326.882812 268.714844 329.53125 270.988281 330.820312 C 271.125 330.035156 271.308594 329.082031 271.527344 328.007812 C 271.636719 327.472656 271.753906 326.90625 271.875 326.324219 C 271.933594 326.027344 272 325.730469 272.0625 325.429688 C 272.113281 325.128906 272.164062 324.824219 272.214844 324.519531 C 272.621094 322.066406 273.167969 319.328125 273.484375 316.945312 C 273.480469 317.566406 273.464844 318.199219 273.441406 318.84375 C 273.417969 319.484375 273.339844 320.15625 273.285156 320.8125 C 273.15625 322.132812 273 323.445312 272.832031 324.6875 C 272.761719 325.304688 272.621094 325.925781 272.511719 326.515625 C 272.394531 327.101562 272.277344 327.667969 272.160156 328.203125 C 271.925781 329.269531 271.695312 330.210938 271.488281 330.976562 C 273.988281 331.199219 275.789062 329.265625 276.386719 326.078125 Z M 280.828125 342.082031 C 282.054688 338.734375 281.898438 333.824219 279.8125 329.101562 C 277.964844 330.363281 276.445312 331.886719 275.269531 333.476562 C 274.679688 334.269531 274.175781 335.082031 273.765625 335.894531 C 273.335938 336.707031 272.957031 337.53125 272.699219 338.328125 C 272.429688 339.128906 272.257812 339.914062 272.1875 340.664062 C 272.152344 341.042969 272.140625 341.410156 272.15625 341.769531 C 272.15625 342.128906 272.171875 342.484375 272.222656 342.824219 C 272.414062 344.191406 273.039062 345.382812 274.140625 346.28125 C 274.433594 345.453125 274.804688 344.453125 275.230469 343.328125 C 275.445312 342.765625 275.671875 342.171875 275.90625 341.558594 C 276.152344 340.941406 276.339844 340.3125 276.570312 339.660156 C 277.027344 338.339844 277.496094 336.972656 277.960938 335.621094 C 278.082031 335.28125 278.191406 334.9375 278.292969 334.601562 C 278.394531 334.265625 278.5 333.925781 278.601562 333.59375 C 278.808594 332.921875 279.011719 332.261719 279.210938 331.621094 C 279.097656 332.296875 278.972656 332.992188 278.835938 333.691406 C 278.699219 334.386719 278.566406 335.089844 278.367188 335.800781 C 278 337.21875 277.601562 338.625 277.199219 339.949219 C 277.097656 340.28125 276.996094 340.605469 276.898438 340.929688 C 276.792969 341.25 276.667969 341.570312 276.554688 341.878906 C 276.324219 342.5 276.097656 343.09375 275.875 343.652344 C 275.433594 344.773438 275.015625 345.753906 274.65625 346.546875 C 277.328125 347.230469 279.613281 345.457031 280.828125 342.082031 Z M 279.308594 363.125 C 280.585938 362.476562 281.746094 361.238281 282.695312 359.53125 C 283.691406 357.828125 284.257812 355.65625 284.542969 353.207031 C 284.601562 352.597656 284.679688 351.964844 284.660156 351.328125 C 284.648438 350.6875 284.613281 350.035156 284.554688 349.371094 C 284.496094 348.707031 284.410156 348.035156 284.296875 347.359375 C 284.242188 347.019531 284.179688 346.679688 284.109375 346.339844 C 284.074219 346.171875 284.035156 346 283.996094 345.828125 C 283.949219 345.660156 283.902344 345.492188 283.851562 345.320312 C 282.785156 345.84375 281.753906 346.453125 280.808594 347.121094 C 279.867188 347.789062 279.007812 348.511719 278.234375 349.265625 C 277.460938 350.023438 276.777344 350.8125 276.195312 351.609375 C 276.046875 351.8125 275.90625 352.011719 275.769531 352.214844 C 275.628906 352.417969 275.488281 352.621094 275.355469 352.824219 C 275.089844 353.230469 274.847656 353.636719 274.632812 354.042969 C 274.207031 354.859375 273.882812 355.667969 273.671875 356.464844 C 273.566406 356.863281 273.488281 357.257812 273.441406 357.644531 C 273.382812 358.03125 273.335938 358.414062 273.328125 358.792969 C 273.292969 360.292969 273.757812 361.683594 274.777344 362.855469 C 275.242188 362.015625 275.816406 361.007812 276.472656 359.875 C 276.800781 359.304688 277.148438 358.707031 277.507812 358.089844 C 277.875 357.46875 278.195312 356.824219 278.554688 356.160156 C 279.277344 354.816406 280.027344 353.425781 280.765625 352.050781 C 281.464844 350.640625 282.152344 349.25 282.796875 347.949219 C 282.304688 349.375 281.785156 350.855469 281.171875 352.316406 C 280.527344 353.78125 279.847656 355.226562 279.179688 356.585938 C 278.851562 357.265625 278.523438 357.921875 278.152344 358.546875 C 277.792969 359.175781 277.445312 359.773438 277.109375 360.335938 C 276.429688 361.460938 275.839844 362.445312 275.269531 363.230469 C 276.613281 363.832031 278 363.773438 279.308594 363.125 Z M 277.195312 381.308594 C 277.945312 381.085938 278.695312 380.699219 279.433594 380.164062 C 279.800781 379.898438 280.167969 379.589844 280.527344 379.25 C 280.878906 378.910156 281.203125 378.527344 281.527344 378.109375 C 282.808594 376.453125 284.007812 374.25 284.660156 371.65625 C 285.414062 369.074219 285.609375 366.109375 285.34375 363.050781 C 282.84375 363.792969 280.558594 364.945312 278.65625 366.289062 C 278.179688 366.625 277.726562 366.972656 277.296875 367.332031 C 276.863281 367.6875 276.460938 368.058594 276.050781 368.429688 C 275.25 369.175781 274.542969 369.953125 273.953125 370.746094 C 273.65625 371.140625 273.386719 371.542969 273.148438 371.941406 C 273.03125 372.144531 272.917969 372.347656 272.8125 372.546875 C 272.699219 372.746094 272.589844 372.949219 272.492188 373.148438 C 272.089844 373.953125 271.816406 374.757812 271.675781 375.558594 C 271.429688 377.164062 271.582031 378.714844 272.425781 380.152344 C 272.765625 379.75 273.140625 379.308594 273.546875 378.835938 C 273.949219 378.359375 274.414062 377.855469 274.84375 377.304688 C 275.746094 376.199219 276.734375 374.984375 277.757812 373.726562 C 279.746094 371.15625 281.9375 368.289062 283.75 365.683594 C 282.980469 367.128906 282.183594 368.625 281.210938 370.082031 C 280.746094 370.808594 280.269531 371.53125 279.792969 372.238281 C 279.324219 372.941406 278.851562 373.632812 278.332031 374.292969 C 277.324219 375.613281 276.347656 376.839844 275.445312 377.917969 C 274.5 378.988281 273.617188 379.910156 272.886719 380.640625 C 274.222656 381.546875 275.699219 381.753906 277.195312 381.308594 Z M 271.488281 399.859375 C 272.328125 399.777344 273.203125 399.519531 274.097656 399.101562 C 274.980469 398.679688 275.839844 398.078125 276.707031 397.328125 C 277.136719 396.953125 277.566406 396.539062 277.988281 396.089844 C 278.402344 395.640625 278.839844 395.160156 279.207031 394.628906 C 279.964844 393.574219 280.683594 392.378906 281.332031 391.074219 C 281.667969 390.425781 281.929688 389.734375 282.1875 389.019531 C 282.441406 388.304688 282.675781 387.566406 282.882812 386.808594 C 283.332031 385.296875 283.546875 383.671875 283.675781 382.007812 C 282.277344 382.167969 280.929688 382.453125 279.65625 382.832031 C 278.375 383.210938 277.1875 383.683594 276.015625 384.207031 C 274.863281 384.734375 273.792969 385.332031 272.824219 385.976562 C 272.339844 386.300781 271.878906 386.632812 271.449219 386.980469 C 271.011719 387.324219 270.574219 387.671875 270.179688 388.03125 C 268.582031 389.464844 267.492188 391.058594 266.820312 392.671875 C 266.503906 393.484375 266.332031 394.316406 266.320312 395.160156 C 266.300781 396 266.394531 396.832031 266.695312 397.675781 C 267.136719 397.324219 267.625 396.933594 268.152344 396.515625 C 268.675781 396.09375 269.210938 395.628906 269.796875 395.144531 C 270.386719 394.652344 271.003906 394.140625 271.644531 393.609375 C 271.96875 393.339844 272.296875 393.070312 272.628906 392.792969 C 272.949219 392.507812 273.269531 392.21875 273.597656 391.929688 C 274.257812 391.339844 274.929688 390.738281 275.605469 390.136719 C 276.285156 389.523438 276.996094 388.910156 277.640625 388.273438 C 278.980469 386.988281 280.296875 385.722656 281.535156 384.539062 C 280.4375 385.929688 279.21875 387.347656 277.996094 388.734375 C 276.734375 390.109375 275.378906 391.421875 274.109375 392.648438 C 271.464844 395.066406 268.96875 397.066406 267.066406 398.289062 C 268.289062 399.511719 269.808594 400.03125 271.488281 399.859375 Z M 261.707031 418.050781 C 263.492188 418.222656 265.636719 417.722656 267.738281 416.472656 C 268.265625 416.164062 268.804688 415.816406 269.34375 415.429688 C 269.875 415.039062 270.4375 414.625 270.9375 414.136719 C 271.957031 413.175781 272.964844 412.0625 273.921875 410.816406 C 274.851562 409.554688 275.675781 408.128906 276.445312 406.613281 C 276.839844 405.859375 277.148438 405.050781 277.449219 404.226562 C 277.746094 403.402344 278.019531 402.550781 278.261719 401.6875 C 275.238281 401.480469 272.34375 401.824219 269.757812 402.503906 C 268.429688 402.828125 267.179688 403.238281 266.023438 403.71875 C 264.859375 404.195312 263.832031 404.765625 262.828125 405.34375 C 260.851562 406.523438 259.371094 407.96875 258.328125 409.523438 C 257.828125 410.308594 257.476562 411.152344 257.285156 412.035156 C 257.058594 412.894531 257.003906 413.804688 257.132812 414.75 C 258.191406 414.183594 259.535156 413.542969 260.9375 412.742188 C 261.65625 412.351562 262.414062 411.9375 263.195312 411.511719 C 263.589844 411.292969 263.992188 411.074219 264.398438 410.851562 C 264.792969 410.617188 265.195312 410.382812 265.597656 410.144531 C 268.878906 408.246094 272.375 406.015625 275.460938 403.933594 C 275.105469 404.25 274.765625 404.578125 274.386719 404.886719 C 274.007812 405.195312 273.625 405.507812 273.234375 405.820312 C 272.460938 406.441406 271.671875 407.058594 270.882812 407.664062 C 270.105469 408.28125 269.25 408.84375 268.429688 409.402344 C 267.605469 409.957031 266.789062 410.492188 265.988281 411.007812 C 265.789062 411.132812 265.589844 411.261719 265.390625 411.386719 C 265.1875 411.503906 264.980469 411.625 264.78125 411.742188 C 264.375 411.972656 263.972656 412.199219 263.582031 412.425781 C 262.792969 412.867188 262.035156 413.277344 261.316406 413.660156 C 260.605469 414.046875 259.890625 414.375 259.230469 414.675781 C 258.570312 414.972656 257.960938 415.238281 257.410156 415.464844 C 258.429688 417.011719 259.914062 417.878906 261.707031 418.050781 Z M 247.53125 434.972656 C 249.347656 435.53125 251.652344 435.433594 254.183594 434.636719 C 255.421875 434.210938 256.714844 433.613281 258.027344 432.855469 C 258.355469 432.667969 258.6875 432.46875 259.015625 432.257812 C 259.332031 432.035156 259.652344 431.804688 259.972656 431.566406 C 260.609375 431.082031 261.246094 430.5625 261.878906 430.003906 C 263.167969 428.910156 264.320312 427.574219 265.441406 426.132812 C 266.585938 424.710938 267.535156 423.058594 268.410156 421.339844 C 266.859375 420.917969 265.304688 420.648438 263.789062 420.503906 C 262.265625 420.359375 260.804688 420.355469 259.339844 420.410156 C 256.429688 420.53125 253.824219 421.113281 251.496094 421.910156 C 246.957031 423.613281 243.789062 426.402344 243.511719 430.511719 C 244.730469 430.144531 246.226562 429.722656 247.925781 429.25 C 249.589844 428.753906 251.414062 428.15625 253.367188 427.542969 C 255.269531 426.886719 257.261719 426.167969 259.261719 425.4375 C 261.203125 424.65625 263.179688 423.882812 265.023438 423.125 C 264.152344 423.644531 263.210938 424.132812 262.277344 424.628906 C 261.335938 425.121094 260.394531 425.613281 259.425781 426.074219 C 258.441406 426.519531 257.453125 426.949219 256.476562 427.363281 C 255.496094 427.769531 254.554688 428.183594 253.566406 428.515625 C 252.597656 428.859375 251.652344 429.179688 250.742188 429.480469 C 250.289062 429.628906 249.84375 429.773438 249.402344 429.914062 C 248.96875 430.050781 248.519531 430.160156 248.097656 430.277344 C 246.390625 430.722656 244.878906 431.082031 243.636719 431.328125 C 244.335938 433.148438 245.703125 434.402344 247.53125 434.972656 Z M 228.730469 449.363281 C 229.609375 449.875 230.652344 450.242188 231.839844 450.457031 C 233.03125 450.691406 234.320312 450.707031 235.71875 450.566406 C 236.417969 450.496094 237.140625 450.382812 237.886719 450.234375 C 238.261719 450.15625 238.636719 450.070312 239.019531 449.972656 C 239.398438 449.871094 239.773438 449.746094 240.15625 449.617188 C 240.917969 449.355469 241.695312 449.054688 242.480469 448.710938 C 242.871094 448.539062 243.269531 448.359375 243.667969 448.164062 C 243.863281 448.066406 244.0625 447.96875 244.261719 447.871094 C 244.457031 447.757812 244.648438 447.648438 244.84375 447.535156 C 245.617188 447.078125 246.398438 446.585938 247.171875 446.046875 C 247.941406 445.507812 248.734375 444.957031 249.457031 444.296875 C 250.191406 443.652344 250.917969 442.96875 251.625 442.25 C 251.976562 441.894531 252.328125 441.527344 252.671875 441.148438 C 253.003906 440.757812 253.324219 440.355469 253.644531 439.945312 C 252.121094 439.167969 250.601562 438.582031 249.035156 438.070312 C 247.476562 437.570312 245.925781 437.203125 244.417969 436.964844 C 243.664062 436.84375 242.917969 436.753906 242.191406 436.695312 C 241.453125 436.625 240.71875 436.570312 240.007812 436.554688 C 238.578125 436.511719 237.21875 436.589844 235.953125 436.78125 C 234.652344 436.929688 233.445312 437.191406 232.347656 437.570312 C 231.792969 437.753906 231.285156 437.992188 230.777344 438.214844 C 230.269531 438.441406 229.792969 438.699219 229.347656 438.984375 C 228.457031 439.554688 227.707031 440.269531 227.074219 441.066406 C 226.4375 441.847656 225.949219 442.761719 225.628906 443.800781 C 226.3125 443.765625 227.066406 443.730469 227.882812 443.691406 C 228.289062 443.671875 228.722656 443.660156 229.15625 443.632812 C 229.589844 443.597656 230.039062 443.566406 230.496094 443.53125 C 232.332031 443.382812 234.425781 443.28125 236.542969 443.015625 C 237.625 442.894531 238.726562 442.769531 239.832031 442.644531 C 240.945312 442.511719 242.039062 442.324219 243.160156 442.164062 C 244.269531 441.992188 245.402344 441.835938 246.492188 441.644531 C 247.585938 441.445312 248.65625 441.246094 249.691406 441.054688 C 248.65625 441.390625 247.59375 441.722656 246.519531 442.042969 C 245.417969 442.335938 244.296875 442.605469 243.183594 442.863281 C 240.980469 443.414062 238.683594 443.761719 236.539062 444.082031 C 236 444.15625 235.480469 444.246094 234.945312 444.292969 C 234.414062 444.339844 233.894531 444.386719 233.378906 444.433594 C 232.355469 444.523438 231.375 444.59375 230.449219 444.648438 C 229.535156 444.71875 228.628906 444.703125 227.8125 444.707031 C 226.992188 444.703125 226.238281 444.6875 225.558594 444.664062 C 225.867188 446.742188 226.964844 448.339844 228.730469 449.363281 Z M 205.378906 459.757812 C 206.925781 461.246094 209.332031 462.378906 212.292969 462.753906 C 213.773438 462.953125 215.421875 463.058594 217.128906 462.875 C 217.988281 462.800781 218.871094 462.679688 219.777344 462.523438 C 220.226562 462.445312 220.6875 462.359375 221.144531 462.257812 C 221.597656 462.136719 222.058594 462.011719 222.519531 461.871094 C 224.355469 461.308594 226.277344 460.644531 228.117188 459.640625 C 229.042969 459.160156 229.96875 458.632812 230.886719 458.070312 C 231.796875 457.492188 232.667969 456.824219 233.542969 456.144531 C 232.15625 454.984375 230.703125 453.984375 229.222656 453.125 C 227.753906 452.269531 226.21875 451.488281 224.71875 450.878906 C 223.964844 450.566406 223.214844 450.292969 222.476562 450.050781 C 221.738281 449.808594 221.003906 449.605469 220.265625 449.398438 C 218.796875 449.003906 217.375 448.742188 216.019531 448.617188 C 215.347656 448.570312 214.667969 448.503906 214.015625 448.488281 C 213.363281 448.472656 212.726562 448.492188 212.113281 448.546875 C 211.5 448.601562 210.910156 448.695312 210.339844 448.824219 C 209.761719 448.933594 209.207031 449.070312 208.675781 449.253906 C 207.617188 449.613281 206.660156 450.140625 205.816406 450.816406 C 204.960938 451.453125 204.222656 452.261719 203.628906 453.246094 C 205.042969 453.507812 206.785156 453.914062 208.707031 454.207031 C 209.6875 454.375 210.710938 454.546875 211.773438 454.726562 C 212.3125 454.828125 212.851562 454.902344 213.398438 454.96875 C 213.953125 455.042969 214.511719 455.113281 215.078125 455.1875 C 216.210938 455.328125 217.386719 455.496094 218.566406 455.621094 C 219.753906 455.726562 220.945312 455.832031 222.128906 455.9375 C 222.730469 455.988281 223.332031 456.039062 223.929688 456.089844 C 224.527344 456.144531 225.109375 456.15625 225.699219 456.191406 C 226.882812 456.25 228.046875 456.308594 229.171875 456.367188 C 226.84375 456.546875 224.4375 456.722656 221.976562 456.664062 C 220.753906 456.648438 219.546875 456.644531 218.34375 456.578125 C 217.132812 456.492188 215.945312 456.398438 214.796875 456.289062 C 214.222656 456.230469 213.65625 456.175781 213.097656 456.117188 C 212.539062 456.046875 211.984375 455.957031 211.445312 455.875 C 210.367188 455.707031 209.335938 455.527344 208.367188 455.351562 C 207.40625 455.191406 206.480469 454.960938 205.636719 454.75 C 204.792969 454.535156 204.019531 454.328125 203.332031 454.128906 C 203.105469 456.339844 203.824219 458.261719 205.378906 459.757812 Z M 178.03125 464.328125 C 178.621094 465.296875 179.453125 466.214844 180.503906 467.054688 C 181.03125 467.472656 181.613281 467.875 182.25 468.253906 C 182.882812 468.644531 183.566406 468.945312 184.300781 469.253906 C 185.03125 469.554688 185.8125 469.828125 186.636719 470.074219 C 187.046875 470.195312 187.472656 470.3125 187.90625 470.417969 C 188.121094 470.46875 188.339844 470.519531 188.5625 470.574219 C 188.78125 470.609375 189.007812 470.648438 189.230469 470.6875 C 190.132812 470.832031 191.074219 470.941406 192.042969 471.015625 C 192.53125 471.054688 193.023438 471.082031 193.523438 471.101562 C 194.027344 471.121094 194.535156 471.132812 195.042969 471.101562 C 199.136719 470.957031 203.632812 470.085938 207.9375 468.128906 C 206.820312 466.582031 205.589844 465.1875 204.300781 463.925781 C 203 462.625 201.640625 461.460938 200.261719 460.441406 C 199.574219 459.929688 198.882812 459.453125 198.1875 459.015625 C 197.492188 458.589844 196.789062 458.132812 196.089844 457.746094 C 194.691406 456.957031 193.308594 456.332031 191.953125 455.84375 C 190.589844 455.304688 189.257812 454.925781 187.976562 454.722656 C 187.65625 454.667969 187.335938 454.628906 187.023438 454.601562 C 186.707031 454.566406 186.394531 454.523438 186.085938 454.503906 C 185.464844 454.457031 184.859375 454.457031 184.269531 454.503906 C 181.910156 454.746094 179.773438 455.503906 178.011719 457.21875 C 178.707031 457.550781 179.46875 457.917969 180.289062 458.3125 C 180.707031 458.515625 181.136719 458.722656 181.578125 458.941406 C 181.800781 459.046875 182.027344 459.160156 182.257812 459.269531 C 182.484375 459.371094 182.71875 459.476562 182.953125 459.582031 C 183.910156 460.007812 184.914062 460.453125 185.949219 460.914062 C 186.480469 461.148438 187.015625 461.386719 187.554688 461.625 C 188.101562 461.84375 188.65625 462.066406 189.214844 462.289062 C 190.355469 462.738281 191.515625 463.195312 192.679688 463.65625 C 193.273438 463.898438 193.863281 464.09375 194.457031 464.304688 C 195.058594 464.511719 195.65625 464.71875 196.253906 464.929688 C 196.859375 465.136719 197.460938 465.34375 198.0625 465.550781 C 198.664062 465.757812 199.269531 465.972656 199.859375 466.144531 C 201.0625 466.511719 202.242188 466.871094 203.382812 467.214844 C 202.164062 467.011719 200.917969 466.789062 199.667969 466.546875 C 198.414062 466.285156 197.148438 465.949219 195.898438 465.628906 C 193.402344 465.027344 190.925781 464.144531 188.628906 463.339844 C 188.339844 463.234375 188.054688 463.132812 187.773438 463.027344 C 187.492188 462.914062 187.210938 462.796875 186.933594 462.683594 C 186.382812 462.449219 185.839844 462.222656 185.304688 461.996094 C 184.246094 461.539062 183.238281 461.089844 182.296875 460.65625 C 180.40625 459.699219 178.773438 458.800781 177.472656 458.035156 C 176.640625 460.238281 176.851562 462.390625 178.03125 464.328125 Z M 253.207031 291.378906 C 253.078125 290.796875 252.84375 290.199219 252.515625 289.601562 C 252.183594 289.003906 251.773438 288.394531 251.230469 287.859375 C 250.15625 286.765625 248.777344 285.742188 247.152344 285 C 245.492188 284.296875 243.632812 283.835938 241.699219 283.757812 C 241.980469 285.71875 242.539062 287.492188 243.289062 289.003906 C 243.996094 290.558594 244.859375 291.898438 245.859375 292.90625 C 246.371094 293.402344 246.855469 293.871094 247.375 294.234375 C 247.894531 294.601562 248.433594 294.878906 248.976562 295.0625 C 250.070312 295.425781 251.199219 295.398438 252.246094 294.882812 C 251.707031 294.328125 251.074219 293.644531 250.386719 292.875 C 250.042969 292.488281 249.683594 292.082031 249.316406 291.660156 C 249.128906 291.453125 248.949219 291.230469 248.75 291.019531 C 248.550781 290.8125 248.351562 290.601562 248.148438 290.386719 C 247.335938 289.53125 246.507812 288.632812 245.699219 287.738281 C 245.304688 287.277344 244.859375 286.871094 244.457031 286.445312 C 244.046875 286.019531 243.648438 285.601562 243.261719 285.199219 C 243.695312 285.554688 244.144531 285.917969 244.601562 286.292969 C 245.046875 286.675781 245.527344 287.042969 245.957031 287.472656 C 246.835938 288.304688 247.71875 289.160156 248.5625 289.996094 C 248.773438 290.203125 248.980469 290.410156 249.183594 290.617188 C 249.390625 290.824219 249.570312 291.042969 249.761719 291.253906 C 250.132812 291.675781 250.492188 292.085938 250.835938 292.476562 C 251.519531 293.261719 252.121094 293.980469 252.605469 294.578125 C 253.289062 293.652344 253.464844 292.550781 253.207031 291.378906 " fill-opacity="1" fill-rule="evenodd"/></g><g fill="#5271ff" fill-opacity="1"><g transform="translate(285.458104, 463.318473)"><g><path d="M 93.984375 0 L 56.234375 0 L 2.8125 -158.125 L 36.015625 -158.125 L 74.40625 -40.234375 L 77.109375 -40.234375 L 114.96875 -158.125 L 147.3125 -158.125 Z M 93.984375 0 "/></g></g><g transform="translate(435.574562, 463.318473)"><g><path d="M 151.734375 0 L 118.859375 0 L 106.96875 -36.453125 L 46.390625 -36.453125 L 34.5 0 L 2.375 0 L 57 -158.125 L 97.125 -158.125 Z M 75.171875 -125.140625 L 54.828125 -62.734375 L 98.3125 -62.734375 L 77.875 -125.140625 Z M 75.171875 -125.140625 "/></g></g><g transform="translate(589.692682, 463.318473)"><g><path d="M 86.625 0 L 55.375 0 L 55.375 -62.078125 L 0.75 -158.125 L 34.28125 -158.125 L 70.40625 -95.9375 L 73.109375 -95.9375 L 108.484375 -158.125 L 141.25 -158.125 L 86.625 -62.078125 Z M 86.625 0 "/></g></g></g></svg>