<svg xmlns="http://www.w3.org/2000/svg" xmlns:xlink="http://www.w3.org/1999/xlink" width="1080" zoomAndPan="magnify" viewBox="0 0 810 809.999993" height="1080" preserveAspectRatio="xMidYMid meet" version="1.0"><defs><g/><clipPath id="e7cee3e1a8"><path d="M 55.382812 290.105469 L 163.960938 290.105469 L 163.960938 477.472656 L 55.382812 477.472656 Z M 55.382812 290.105469 " clip-rule="nonzero"/></clipPath><clipPath id="04d4fffdb1"><path d="M 171.308594 290.105469 L 279.628906 290.105469 L 279.628906 477.472656 L 171.308594 477.472656 Z M 171.308594 290.105469 " clip-rule="nonzero"/></clipPath></defs><g clip-path="url(#e7cee3e1a8)"><path fill="#ffffff" d="M 87.195312 307.351562 C 87.425781 307.257812 87.679688 307.15625 87.953125 307.050781 C 88.234375 306.945312 88.535156 306.832031 88.851562 306.710938 C 89.476562 306.46875 90.160156 306.199219 90.871094 305.921875 C 91.566406 305.636719 92.285156 305.339844 93 305.050781 C 93.722656 304.773438 94.441406 304.507812 95.097656 304.242188 C 94.410156 304.40625 93.671875 304.597656 92.921875 304.804688 C 92.195312 305.035156 91.464844 305.289062 90.75 305.546875 C 89.332031 306.070312 87.972656 306.589844 87.074219 307.042969 C 86.855469 305.433594 88.070312 304.070312 89.84375 303.363281 C 90.71875 303.003906 91.808594 302.871094 92.925781 302.941406 C 94.050781 303.011719 95.222656 303.304688 96.367188 303.851562 C 96.039062 304.402344 95.675781 304.898438 95.285156 305.347656 C 94.898438 305.800781 94.46875 306.191406 94.074219 306.570312 C 93.253906 307.3125 92.363281 307.851562 91.488281 308.179688 C 89.714844 308.8125 88.082031 308.683594 87.195312 307.351562 Z M 79.804688 318.816406 C 80.796875 318.289062 82.164062 317.507812 83.589844 316.664062 C 83.941406 316.445312 84.320312 316.242188 84.699219 316.039062 C 85.074219 315.832031 85.453125 315.625 85.828125 315.417969 C 86.574219 315.003906 87.296875 314.59375 87.964844 314.203125 C 86.535156 314.773438 84.890625 315.503906 83.390625 316.273438 C 81.933594 317.066406 80.578125 317.878906 79.640625 318.503906 C 79.410156 317.640625 79.558594 316.78125 79.992188 316.003906 C 80.425781 315.226562 81.128906 314.523438 82.097656 314.035156 C 83.046875 313.53125 84.179688 313.199219 85.40625 313.101562 C 86.636719 313.007812 87.933594 313.136719 89.289062 313.585938 C 88.222656 316.191406 86.386719 318.023438 84.636719 319.050781 C 82.851562 320.042969 80.957031 320.113281 79.804688 318.816406 Z M 73.929688 331.800781 C 74.417969 331.429688 74.996094 330.976562 75.628906 330.472656 C 76.265625 329.96875 76.917969 329.402344 77.675781 328.851562 C 78.398438 328.296875 79.152344 327.722656 79.898438 327.15625 C 80.636719 326.59375 81.308594 326.019531 82.019531 325.519531 C 81.246094 325.914062 80.507812 326.402344 79.726562 326.902344 C 78.949219 327.402344 78.164062 327.933594 77.410156 328.46875 C 77.035156 328.738281 76.648438 329 76.308594 329.269531 C 75.972656 329.542969 75.644531 329.8125 75.332031 330.066406 C 74.707031 330.582031 74.148438 331.066406 73.695312 331.480469 C 73.296875 330.589844 73.3125 329.628906 73.648438 328.710938 C 73.734375 328.480469 73.832031 328.253906 73.964844 328.035156 C 74.097656 327.816406 74.253906 327.605469 74.425781 327.398438 C 74.769531 326.984375 75.179688 326.597656 75.648438 326.246094 C 76.589844 325.546875 77.742188 324.996094 79.058594 324.703125 C 80.398438 324.421875 81.871094 324.382812 83.386719 324.652344 C 83.179688 325.390625 82.898438 326.074219 82.609375 326.726562 C 82.335938 327.382812 82.011719 327.996094 81.648438 328.554688 C 80.9375 329.671875 80.027344 330.570312 79.179688 331.265625 C 77.429688 332.628906 75.398438 333.023438 73.929688 331.800781 Z M 69.933594 346.195312 C 70.394531 345.714844 70.9375 345.128906 71.523438 344.476562 C 71.820312 344.15625 72.113281 343.8125 72.445312 343.464844 C 72.777344 343.121094 73.121094 342.765625 73.46875 342.40625 C 74.867188 340.964844 76.246094 339.425781 77.585938 338.125 C 76.066406 339.222656 74.550781 340.636719 73.109375 342.039062 C 71.636719 343.429688 70.460938 344.851562 69.621094 345.898438 C 69.039062 345 68.886719 343.964844 69.085938 342.917969 C 69.34375 341.882812 69.957031 340.84375 70.839844 339.9375 C 71.28125 339.480469 71.789062 339.058594 72.355469 338.683594 C 72.917969 338.304688 73.589844 337.992188 74.277344 337.730469 C 75.664062 337.210938 77.230469 336.933594 78.894531 336.984375 C 78.714844 338.632812 78.207031 340.105469 77.671875 341.429688 C 77.382812 342.085938 77.042969 342.691406 76.667969 343.246094 C 76.300781 343.800781 75.855469 344.289062 75.464844 344.734375 C 73.828125 346.488281 71.71875 347.257812 69.933594 346.195312 Z M 68.222656 361.816406 C 69.046875 360.628906 70.058594 358.929688 71.328125 357.152344 C 71.925781 356.273438 72.542969 355.359375 73.15625 354.457031 C 73.441406 354.007812 73.777344 353.570312 74.089844 353.144531 C 74.394531 352.714844 74.699219 352.296875 74.988281 351.890625 C 74.308594 352.609375 73.558594 353.398438 72.867188 354.234375 C 72.195312 355.070312 71.523438 355.949219 70.882812 356.816406 C 70.566406 357.257812 70.253906 357.691406 69.949219 358.109375 C 69.644531 358.535156 69.359375 358.953125 69.121094 359.355469 C 68.621094 360.164062 68.183594 360.914062 67.835938 361.546875 C 67.058594 360.695312 66.695312 359.609375 66.746094 358.457031 C 66.839844 357.308594 67.308594 356.089844 68.089844 354.96875 C 68.484375 354.40625 68.9375 353.863281 69.496094 353.371094 C 70.0625 352.875 70.699219 352.421875 71.394531 352.027344 C 72.78125 351.238281 74.402344 350.679688 76.1875 350.457031 C 76.230469 351.347656 76.195312 352.207031 76.085938 353.027344 C 76.03125 353.441406 75.960938 353.84375 75.871094 354.234375 C 75.804688 354.628906 75.726562 355.015625 75.632812 355.386719 C 75.253906 356.882812 74.605469 358.207031 73.847656 359.285156 C 72.417969 361.4375 70.3125 362.636719 68.222656 361.816406 Z M 69.148438 378.335938 C 69.476562 377.632812 69.859375 376.785156 70.269531 375.847656 C 70.472656 375.382812 70.683594 374.894531 70.90625 374.390625 C 71.011719 374.140625 71.121094 373.886719 71.234375 373.628906 C 71.355469 373.371094 71.480469 373.109375 71.605469 372.84375 C 72.089844 371.808594 72.59375 370.734375 73.089844 369.667969 C 73.210938 369.40625 73.328125 369.148438 73.449219 368.886719 C 73.570312 368.628906 73.707031 368.371094 73.832031 368.117188 C 74.085938 367.613281 74.332031 367.117188 74.570312 366.632812 C 74.265625 367.074219 73.957031 367.535156 73.648438 368.011719 C 73.492188 368.253906 73.335938 368.496094 73.179688 368.742188 C 73.03125 368.988281 72.894531 369.234375 72.75 369.484375 C 72.179688 370.492188 71.613281 371.539062 71.082031 372.574219 C 70.527344 373.613281 70.097656 374.628906 69.699219 375.574219 C 69.304688 376.519531 68.964844 377.394531 68.703125 378.128906 C 67.734375 377.367188 67.1875 376.277344 67.027344 375.046875 C 66.988281 374.742188 66.96875 374.425781 66.976562 374.101562 C 67 373.777344 67.046875 373.449219 67.117188 373.117188 C 67.257812 372.449219 67.488281 371.773438 67.808594 371.105469 C 68.125 370.441406 68.53125 369.785156 69.015625 369.164062 C 69.515625 368.539062 70.121094 367.949219 70.785156 367.410156 C 72.121094 366.328125 73.738281 365.457031 75.589844 364.910156 C 76.015625 366.78125 75.980469 368.574219 75.875 370.21875 C 75.722656 371.863281 75.25 373.375 74.703125 374.640625 C 73.53125 377.167969 71.496094 378.824219 69.148438 378.335938 Z M 73.257812 395.324219 C 73.457031 394.527344 73.679688 393.5625 73.914062 392.507812 C 74.160156 391.449219 74.484375 390.277344 74.777344 389.089844 C 74.925781 388.5 75.074219 387.898438 75.226562 387.292969 C 75.375 386.691406 75.570312 386.078125 75.734375 385.480469 C 76.078125 384.28125 76.398438 383.117188 76.691406 382.035156 C 76.238281 383.058594 75.789062 384.179688 75.347656 385.347656 C 75.125 385.929688 74.910156 386.523438 74.695312 387.121094 C 74.511719 387.714844 74.335938 388.308594 74.164062 388.898438 C 73.824219 390.082031 73.515625 391.246094 73.25 392.328125 C 73.035156 393.390625 72.859375 394.371094 72.738281 395.191406 C 72.148438 394.890625 71.652344 394.480469 71.25 393.988281 C 71.050781 393.742188 70.871094 393.476562 70.71875 393.195312 C 70.574219 392.910156 70.460938 392.601562 70.367188 392.285156 C 70.007812 391.007812 70.003906 389.511719 70.414062 387.992188 C 70.871094 386.457031 71.695312 384.914062 72.867188 383.539062 C 73.445312 382.855469 74.144531 382.203125 74.929688 381.613281 C 75.707031 381.019531 76.566406 380.488281 77.496094 380.03125 C 78.171875 381.933594 78.667969 383.765625 78.742188 385.53125 C 78.757812 385.972656 78.785156 386.402344 78.792969 386.820312 C 78.800781 387.242188 78.785156 387.65625 78.753906 388.0625 C 78.6875 388.875 78.550781 389.652344 78.34375 390.378906 C 77.957031 391.824219 77.359375 393.054688 76.496094 393.945312 C 75.636719 394.828125 74.546875 395.355469 73.257812 395.324219 Z M 80.914062 412.207031 C 80.957031 411.328125 80.992188 410.273438 81.019531 409.121094 C 81.082031 407.964844 81.152344 406.691406 81.226562 405.371094 C 81.269531 404.714844 81.273438 404.070312 81.34375 403.398438 C 81.398438 402.734375 81.457031 402.066406 81.511719 401.402344 C 81.628906 400.085938 81.695312 398.824219 81.851562 397.613281 C 81.523438 398.796875 81.300781 400.042969 81.078125 401.347656 C 80.871094 402.644531 80.632812 404.015625 80.546875 405.304688 C 80.4375 406.605469 80.355469 407.882812 80.304688 409.0625 C 80.269531 410.234375 80.3125 411.28125 80.34375 412.167969 C 78.996094 411.765625 77.898438 410.875 77.273438 409.601562 C 76.949219 408.972656 76.714844 408.265625 76.570312 407.507812 C 76.496094 407.128906 76.449219 406.738281 76.421875 406.339844 C 76.402344 405.9375 76.425781 405.515625 76.464844 405.09375 C 76.628906 403.402344 77.148438 401.636719 78.128906 399.960938 C 79.128906 398.273438 80.519531 396.699219 82.285156 395.386719 C 82.863281 396.292969 83.320312 397.21875 83.707031 398.136719 C 84.128906 399.039062 84.449219 399.949219 84.679688 400.851562 C 84.800781 401.300781 84.882812 401.753906 84.96875 402.199219 C 85.0625 402.632812 85.132812 403.066406 85.179688 403.496094 C 85.28125 404.351562 85.292969 405.1875 85.226562 405.984375 C 85.148438 406.792969 85.046875 407.527344 84.847656 408.21875 C 84.648438 408.90625 84.371094 409.539062 84.015625 410.089844 C 83.296875 411.1875 82.269531 411.96875 80.914062 412.207031 Z M 92.460938 428.175781 C 92.199219 426.308594 91.691406 423.777344 91.34375 421.003906 C 91.246094 420.324219 91.144531 419.628906 91.046875 418.933594 C 90.941406 418.246094 90.886719 417.523438 90.804688 416.832031 C 90.726562 416.144531 90.648438 415.457031 90.574219 414.785156 C 90.535156 414.453125 90.496094 414.125 90.457031 413.800781 C 90.417969 413.476562 90.398438 413.144531 90.367188 412.828125 C 90.351562 413.148438 90.328125 413.480469 90.316406 413.808594 C 90.316406 414.136719 90.3125 414.464844 90.3125 414.800781 C 90.3125 415.472656 90.320312 416.164062 90.339844 416.863281 C 90.359375 417.566406 90.386719 418.277344 90.421875 418.992188 C 90.484375 419.6875 90.550781 420.386719 90.628906 421.074219 C 90.703125 421.765625 90.785156 422.449219 90.871094 423.117188 C 90.917969 423.449219 90.960938 423.777344 91.007812 424.101562 C 91.058594 424.421875 91.117188 424.726562 91.175781 425.03125 C 91.40625 426.238281 91.644531 427.34375 91.867188 428.261719 C 90.386719 428.132812 89.09375 427.40625 88.121094 426.253906 C 87.191406 425.070312 86.546875 423.5 86.316406 421.734375 C 86.132812 419.9375 86.332031 417.972656 86.96875 416.042969 C 87.65625 414.078125 88.78125 412.15625 90.34375 410.425781 C 90.738281 410.835938 91.101562 411.257812 91.441406 411.683594 C 91.78125 412.109375 92.078125 412.554688 92.402344 412.972656 C 93.023438 413.824219 93.539062 414.699219 93.964844 415.59375 C 94.167969 416.042969 94.378906 416.476562 94.566406 416.910156 C 94.75 417.34375 94.910156 417.78125 95.050781 418.214844 C 95.332031 419.082031 95.496094 419.964844 95.617188 420.792969 C 96.101562 424.074219 95.15625 427.101562 92.460938 428.175781 Z M 108.148438 442.234375 C 107.964844 441.785156 107.757812 441.285156 107.539062 440.75 C 107.425781 440.484375 107.3125 440.207031 107.195312 439.921875 C 107.082031 439.632812 106.96875 439.332031 106.851562 439.023438 C 106.382812 437.820312 105.871094 436.5 105.335938 435.125 C 104.855469 433.753906 104.351562 432.332031 103.859375 430.929688 L 103.675781 430.414062 L 103.507812 429.890625 C 103.398438 429.542969 103.289062 429.195312 103.179688 428.855469 C 102.960938 428.183594 102.746094 427.523438 102.539062 426.882812 C 102.765625 428.195312 103.035156 429.625 103.378906 431.070312 C 103.753906 432.480469 104.171875 433.929688 104.617188 435.347656 C 105.074219 436.75 105.601562 438.054688 106.089844 439.285156 C 106.34375 439.894531 106.574219 440.492188 106.824219 441.015625 C 107.078125 441.539062 107.320312 442.027344 107.546875 442.46875 C 106.761719 442.578125 105.980469 442.535156 105.253906 442.324219 C 104.535156 442.097656 103.855469 441.726562 103.226562 441.234375 C 102.601562 440.742188 102.015625 440.144531 101.53125 439.425781 C 101.054688 438.691406 100.652344 437.863281 100.34375 436.972656 C 100.039062 436.070312 99.792969 435.140625 99.707031 434.109375 C 99.617188 433.082031 99.628906 432.019531 99.757812 430.941406 C 99.882812 429.863281 100.125 428.773438 100.488281 427.6875 C 100.863281 426.589844 101.371094 425.488281 101.996094 424.417969 C 102.941406 425.128906 103.878906 425.808594 104.679688 426.574219 C 105.082031 426.953125 105.460938 427.34375 105.816406 427.742188 C 106.175781 428.140625 106.539062 428.519531 106.859375 428.925781 C 107.511719 429.722656 108.066406 430.5625 108.535156 431.410156 C 109.027344 432.226562 109.425781 433.0625 109.726562 433.898438 C 110.027344 434.730469 110.214844 435.585938 110.332031 436.371094 C 110.445312 437.160156 110.453125 437.929688 110.339844 438.652344 C 110.117188 440.097656 109.425781 441.367188 108.148438 442.234375 Z M 127.929688 453.132812 C 127.628906 452.71875 127.296875 452.261719 126.9375 451.769531 C 126.589844 451.261719 126.214844 450.71875 125.820312 450.148438 C 125.429688 449.589844 125.023438 449 124.597656 448.390625 C 124.390625 448.09375 124.175781 447.789062 123.960938 447.480469 C 123.746094 447.171875 123.542969 446.839844 123.332031 446.515625 C 122.914062 445.871094 122.488281 445.214844 122.0625 444.554688 C 121.851562 444.230469 121.636719 443.90625 121.425781 443.578125 L 121.109375 443.097656 L 120.808594 442.59375 C 120.015625 441.285156 119.234375 439.996094 118.496094 438.78125 C 119.03125 440.074219 119.667969 441.4375 120.359375 442.847656 C 120.695312 443.5625 121.074219 444.234375 121.464844 444.910156 C 121.851562 445.585938 122.246094 446.265625 122.648438 446.929688 C 123.4375 448.289062 124.304688 449.484375 125.109375 450.613281 C 125.515625 451.171875 125.910156 451.707031 126.285156 452.203125 C 126.660156 452.707031 127.039062 453.117188 127.378906 453.519531 C 124.265625 454.769531 120.777344 453.019531 118.644531 449.644531 C 118.09375 448.828125 117.660156 447.859375 117.316406 446.835938 C 116.972656 445.8125 116.730469 444.726562 116.601562 443.597656 C 116.464844 442.484375 116.472656 441.277344 116.605469 440.058594 C 116.734375 438.839844 116.988281 437.605469 117.378906 436.363281 C 118.542969 436.820312 119.59375 437.390625 120.621094 437.933594 C 121.125 438.214844 121.609375 438.519531 122.066406 438.839844 C 122.53125 439.152344 122.957031 439.507812 123.394531 439.820312 C 124.257812 440.46875 125.027344 441.179688 125.707031 441.933594 C 125.878906 442.121094 126.042969 442.3125 126.199219 442.503906 C 126.363281 442.6875 126.523438 442.871094 126.675781 443.058594 C 126.980469 443.429688 127.257812 443.8125 127.515625 444.199219 C 128.023438 444.976562 128.433594 445.777344 128.730469 446.582031 C 129.027344 447.386719 129.234375 448.148438 129.292969 448.917969 C 129.421875 450.453125 129.027344 451.921875 127.929688 453.132812 Z M 151.511719 459.289062 C 149.832031 457.9375 147.484375 455.910156 145.078125 453.796875 C 143.90625 452.710938 142.695312 451.582031 141.496094 450.464844 C 140.335938 449.304688 139.21875 448.1875 138.175781 447.171875 C 139.050781 448.339844 140.042969 449.582031 141.105469 450.835938 C 142.175781 452.0625 143.335938 453.230469 144.496094 454.394531 C 145.070312 454.984375 145.664062 455.507812 146.25 456.015625 C 146.832031 456.527344 147.40625 457.019531 147.96875 457.488281 C 148.527344 457.949219 149.066406 458.410156 149.585938 458.789062 C 150.105469 459.167969 150.597656 459.519531 151.046875 459.828125 C 150.339844 460.347656 149.550781 460.71875 148.730469 460.886719 C 147.910156 461.042969 147.046875 461.035156 146.171875 460.882812 C 145.738281 460.804688 145.300781 460.695312 144.863281 460.546875 C 144.425781 460.402344 143.992188 460.222656 143.570312 459.976562 C 142.722656 459.503906 141.898438 458.902344 141.132812 458.191406 C 140.75 457.835938 140.378906 457.453125 140.027344 457.046875 C 139.679688 456.628906 139.355469 456.164062 139.046875 455.6875 C 138.433594 454.730469 137.90625 453.683594 137.484375 452.566406 C 137.273438 452.007812 137.089844 451.429688 136.9375 450.835938 C 136.785156 450.230469 136.667969 449.601562 136.578125 448.964844 C 136.402344 447.691406 136.347656 446.363281 136.429688 444.996094 C 137.078125 445.082031 137.703125 445.195312 138.3125 445.339844 C 138.925781 445.472656 139.53125 445.585938 140.113281 445.753906 C 140.699219 445.910156 141.261719 446.097656 141.8125 446.304688 C 142.085938 446.40625 142.351562 446.519531 142.617188 446.628906 C 142.886719 446.730469 143.152344 446.832031 143.410156 446.945312 C 144.449219 447.382812 145.414062 447.910156 146.296875 448.503906 C 147.1875 449.0625 148.003906 449.65625 148.722656 450.320312 C 149.441406 450.972656 150.0625 451.714844 150.582031 452.421875 C 151.101562 453.128906 151.507812 453.875 151.777344 454.640625 C 152.3125 456.171875 152.304688 457.773438 151.511719 459.289062 Z M 81.765625 310.507812 C 81.75 309.191406 81.945312 307.378906 82.207031 305.355469 C 82.277344 304.847656 82.351562 304.332031 82.425781 303.808594 C 82.464844 303.550781 82.5 303.285156 82.550781 303.027344 L 82.707031 302.257812 C 82.921875 301.230469 83.160156 300.210938 83.402344 299.25 C 83.203125 301.195312 82.878906 303.316406 82.714844 305.363281 C 82.613281 306.359375 82.515625 307.320312 82.421875 308.199219 C 82.375 308.628906 82.328125 309.039062 82.285156 309.425781 C 82.25 309.8125 82.21875 310.171875 82.1875 310.5 C 82.691406 310.382812 83.121094 310.160156 83.527344 309.886719 C 83.9375 309.609375 84.289062 309.261719 84.585938 308.847656 C 85.175781 308.019531 85.542969 306.9375 85.675781 305.695312 C 86.015625 303.277344 85.472656 300.199219 83.746094 297.398438 C 82.382812 298.644531 81.28125 300.042969 80.480469 301.433594 C 79.730469 302.863281 79.285156 304.292969 79.132812 305.5625 C 79.058594 306.199219 79.050781 306.792969 79.128906 307.347656 C 79.21875 307.902344 79.378906 308.40625 79.605469 308.835938 C 80.0625 309.703125 80.789062 310.292969 81.765625 310.507812 Z M 74.6875 323.144531 C 74.5 321.707031 74.386719 319.65625 74.332031 317.351562 C 74.308594 316.769531 74.339844 316.199219 74.359375 315.613281 C 74.382812 315.027344 74.410156 314.4375 74.445312 313.84375 C 74.519531 312.664062 74.589844 311.464844 74.734375 310.363281 C 74.785156 312.523438 74.839844 314.984375 74.890625 317.277344 C 75.015625 319.570312 75.109375 321.632812 75.132812 323.074219 C 76.230469 322.652344 77.035156 321.878906 77.542969 320.859375 C 77.796875 320.347656 77.980469 319.777344 78.089844 319.15625 C 78.195312 318.535156 78.285156 317.894531 78.273438 317.199219 C 78.269531 315.824219 77.980469 314.300781 77.402344 312.757812 C 76.847656 311.226562 76.042969 309.699219 74.886719 308.28125 C 74.539062 308.671875 74.210938 309.074219 73.90625 309.480469 C 73.753906 309.683594 73.601562 309.886719 73.460938 310.089844 C 73.328125 310.304688 73.203125 310.515625 73.078125 310.730469 C 72.589844 311.582031 72.179688 312.445312 71.851562 313.289062 C 71.6875 313.714844 71.542969 314.132812 71.421875 314.546875 C 71.359375 314.753906 71.300781 314.960938 71.253906 315.164062 C 71.210938 315.371094 71.171875 315.578125 71.140625 315.78125 C 71.007812 316.597656 70.957031 317.378906 70.980469 318.101562 C 71.03125 319.554688 71.378906 320.777344 72.011719 321.652344 C 72.664062 322.542969 73.570312 323.070312 74.6875 323.144531 Z M 69.347656 337.328125 C 69.140625 336.5625 68.910156 335.621094 68.675781 334.550781 C 68.558594 334.019531 68.441406 333.453125 68.324219 332.863281 C 68.214844 332.277344 68.074219 331.652344 68.003906 331.035156 C 67.835938 329.792969 67.679688 328.480469 67.550781 327.160156 C 67.496094 326.503906 67.417969 325.835938 67.394531 325.195312 C 67.371094 324.550781 67.359375 323.914062 67.351562 323.296875 C 67.667969 325.675781 68.214844 328.417969 68.621094 330.867188 C 68.671875 331.175781 68.722656 331.476562 68.773438 331.777344 C 68.839844 332.082031 68.902344 332.378906 68.960938 332.671875 C 69.082031 333.257812 69.199219 333.820312 69.308594 334.359375 C 69.527344 335.429688 69.710938 336.382812 69.847656 337.171875 C 72.121094 335.878906 72.730469 333.230469 72.300781 330.226562 C 71.75 327.191406 70.15625 323.738281 67.164062 320.953125 C 66.542969 321.9375 66.007812 322.949219 65.566406 323.953125 C 65.460938 324.207031 65.351562 324.453125 65.257812 324.707031 C 65.171875 324.964844 65.089844 325.21875 65.015625 325.472656 C 64.863281 325.980469 64.734375 326.484375 64.628906 326.980469 C 64.414062 327.972656 64.289062 328.933594 64.242188 329.847656 C 64.203125 330.753906 64.308594 331.636719 64.449219 332.425781 C 65.046875 335.617188 66.847656 337.546875 69.347656 337.328125 Z M 66.179688 352.898438 C 65.820312 352.105469 65.402344 351.125 64.960938 350.003906 C 64.738281 349.445312 64.511719 348.851562 64.28125 348.230469 C 64.167969 347.917969 64.042969 347.601562 63.9375 347.277344 C 63.839844 346.957031 63.738281 346.628906 63.636719 346.300781 C 63.234375 344.976562 62.835938 343.570312 62.46875 342.152344 C 62.269531 341.4375 62.136719 340.738281 62 340.039062 C 61.867188 339.339844 61.742188 338.648438 61.625 337.972656 C 61.824219 338.609375 62.027344 339.269531 62.238281 339.945312 C 62.339844 340.277344 62.441406 340.613281 62.546875 340.953125 C 62.644531 341.289062 62.753906 341.628906 62.875 341.972656 C 63.339844 343.320312 63.8125 344.691406 64.265625 346.011719 C 64.496094 346.664062 64.683594 347.292969 64.929688 347.910156 C 65.164062 348.523438 65.390625 349.113281 65.605469 349.679688 C 66.03125 350.804688 66.40625 351.804688 66.695312 352.632812 C 67.800781 351.730469 68.421875 350.539062 68.613281 349.175781 C 68.664062 348.832031 68.683594 348.480469 68.683594 348.117188 C 68.695312 347.757812 68.6875 347.390625 68.648438 347.015625 C 68.578125 346.261719 68.40625 345.480469 68.140625 344.679688 C 67.875 343.878906 67.5 343.058594 67.070312 342.242188 C 66.660156 341.433594 66.15625 340.621094 65.566406 339.824219 C 64.390625 338.238281 62.871094 336.710938 61.027344 335.449219 C 58.9375 340.171875 58.78125 345.085938 60.007812 348.433594 C 61.222656 351.804688 63.507812 353.578125 66.179688 352.898438 Z M 65.566406 369.578125 C 65 368.792969 64.410156 367.8125 63.726562 366.6875 C 63.390625 366.125 63.042969 365.527344 62.683594 364.898438 C 62.316406 364.269531 61.984375 363.613281 61.65625 362.933594 C 60.988281 361.578125 60.3125 360.132812 59.664062 358.667969 C 59.050781 357.203125 58.535156 355.722656 58.039062 354.300781 C 58.683594 355.601562 59.371094 356.992188 60.070312 358.402344 C 60.808594 359.773438 61.558594 361.167969 62.28125 362.511719 C 62.640625 363.171875 62.960938 363.816406 63.328125 364.4375 C 63.6875 365.054688 64.035156 365.652344 64.367188 366.222656 C 65.023438 367.355469 65.59375 368.367188 66.058594 369.203125 C 67.078125 368.035156 67.542969 366.644531 67.507812 365.140625 C 67.5 364.765625 67.453125 364.382812 67.398438 363.996094 C 67.347656 363.605469 67.273438 363.210938 67.167969 362.816406 C 66.957031 362.019531 66.628906 361.207031 66.203125 360.394531 C 65.988281 359.988281 65.746094 359.578125 65.480469 359.171875 C 65.347656 358.96875 65.207031 358.765625 65.066406 358.5625 C 64.929688 358.363281 64.789062 358.160156 64.644531 357.960938 C 64.058594 357.160156 63.375 356.371094 62.601562 355.617188 C 61.832031 354.859375 60.96875 354.136719 60.027344 353.46875 C 59.082031 352.804688 58.054688 352.191406 56.984375 351.667969 C 56.933594 351.839844 56.886719 352.011719 56.835938 352.179688 C 56.800781 352.351562 56.765625 352.519531 56.726562 352.691406 C 56.65625 353.03125 56.59375 353.371094 56.539062 353.710938 C 56.425781 354.386719 56.339844 355.058594 56.28125 355.71875 C 56.222656 356.382812 56.1875 357.035156 56.179688 357.675781 C 56.160156 358.316406 56.234375 358.945312 56.292969 359.558594 C 56.578125 362.003906 57.144531 364.175781 58.140625 365.878906 C 59.089844 367.585938 60.25 368.828125 61.53125 369.472656 C 62.835938 370.121094 64.222656 370.179688 65.566406 369.578125 Z M 67.949219 386.992188 C 67.21875 386.257812 66.339844 385.339844 65.390625 384.269531 C 64.492188 383.191406 63.511719 381.964844 62.503906 380.640625 C 61.984375 379.984375 61.515625 379.292969 61.042969 378.585938 C 60.566406 377.882812 60.09375 377.160156 59.625 376.429688 C 58.65625 374.976562 57.855469 373.476562 57.085938 372.035156 C 58.894531 374.640625 61.089844 377.503906 63.078125 380.074219 C 64.101562 381.332031 65.09375 382.546875 65.996094 383.65625 C 66.421875 384.203125 66.886719 384.710938 67.292969 385.183594 C 67.695312 385.660156 68.070312 386.101562 68.410156 386.5 C 69.257812 385.0625 69.410156 383.511719 69.160156 381.910156 C 69.023438 381.109375 68.746094 380.300781 68.347656 379.5 C 68.246094 379.296875 68.136719 379.097656 68.023438 378.898438 C 67.917969 378.695312 67.804688 378.492188 67.6875 378.292969 C 67.449219 377.890625 67.179688 377.492188 66.882812 377.09375 C 66.292969 376.304688 65.589844 375.527344 64.785156 374.78125 C 64.375 374.40625 63.972656 374.039062 63.542969 373.679688 C 63.113281 373.324219 62.65625 372.972656 62.179688 372.636719 C 60.28125 371.296875 57.992188 370.144531 55.492188 369.402344 C 55.230469 372.460938 55.425781 375.425781 56.179688 378.003906 C 56.832031 380.601562 58.027344 382.800781 59.308594 384.460938 C 59.636719 384.875 59.957031 385.257812 60.3125 385.601562 C 60.671875 385.941406 61.035156 386.246094 61.40625 386.515625 C 62.140625 387.050781 62.894531 387.433594 63.640625 387.65625 C 65.136719 388.101562 66.613281 387.898438 67.949219 386.992188 Z M 73.769531 404.640625 C 71.867188 403.414062 69.371094 401.417969 66.726562 399 C 65.457031 397.773438 64.101562 396.457031 62.84375 395.082031 C 61.621094 393.699219 60.398438 392.277344 59.304688 390.886719 C 60.539062 392.074219 61.859375 393.339844 63.195312 394.625 C 63.839844 395.261719 64.550781 395.875 65.230469 396.484375 C 65.90625 397.089844 66.578125 397.6875 67.238281 398.277344 C 67.566406 398.570312 67.890625 398.859375 68.207031 399.144531 C 68.542969 399.417969 68.871094 399.691406 69.195312 399.960938 C 69.832031 400.492188 70.449219 401.003906 71.039062 401.492188 C 71.625 401.980469 72.160156 402.445312 72.683594 402.867188 C 73.210938 403.285156 73.699219 403.671875 74.144531 404.023438 C 74.445312 403.183594 74.535156 402.351562 74.519531 401.511719 C 74.507812 400.664062 74.335938 399.832031 74.015625 399.023438 C 73.34375 397.410156 72.253906 395.816406 70.65625 394.382812 C 70.265625 394.019531 69.824219 393.675781 69.390625 393.332031 C 68.957031 392.984375 68.5 392.648438 68.015625 392.328125 C 67.046875 391.679688 65.976562 391.085938 64.820312 390.558594 C 63.648438 390.03125 62.460938 389.558594 61.183594 389.179688 C 59.90625 388.804688 58.558594 388.519531 57.160156 388.355469 C 57.289062 390.019531 57.503906 391.648438 57.953125 393.15625 C 58.160156 393.917969 58.394531 394.65625 58.648438 395.371094 C 58.90625 396.082031 59.167969 396.777344 59.503906 397.425781 C 60.15625 398.730469 60.871094 399.921875 61.628906 400.980469 C 61.996094 401.511719 62.433594 401.988281 62.851562 402.441406 C 63.269531 402.890625 63.699219 403.300781 64.128906 403.675781 C 64.996094 404.425781 65.855469 405.03125 66.738281 405.453125 C 67.632812 405.871094 68.511719 406.125 69.347656 406.210938 C 71.027344 406.378906 72.546875 405.863281 73.769531 404.640625 Z M 83.425781 421.816406 C 82.875 421.585938 82.265625 421.320312 81.605469 421.023438 C 80.945312 420.726562 80.230469 420.398438 79.523438 420.007812 C 78.800781 419.628906 78.042969 419.214844 77.257812 418.773438 C 76.863281 418.550781 76.460938 418.324219 76.058594 418.09375 C 75.855469 417.972656 75.648438 417.855469 75.445312 417.734375 C 75.246094 417.609375 75.046875 417.484375 74.847656 417.355469 C 74.046875 416.84375 73.230469 416.304688 72.40625 415.75 C 71.585938 415.191406 70.730469 414.628906 69.957031 414.015625 C 69.164062 413.410156 68.375 412.792969 67.601562 412.171875 C 67.214844 411.855469 66.828125 411.546875 66.449219 411.238281 C 66.074219 410.925781 65.730469 410.601562 65.375 410.28125 C 68.460938 412.363281 71.957031 414.597656 75.238281 416.492188 C 75.640625 416.730469 76.042969 416.96875 76.4375 417.203125 C 76.84375 417.421875 77.246094 417.644531 77.644531 417.859375 C 78.421875 418.285156 79.179688 418.699219 79.898438 419.09375 C 81.300781 419.890625 82.644531 420.535156 83.703125 421.101562 C 83.832031 420.152344 83.777344 419.246094 83.554688 418.382812 C 83.359375 417.5 83.011719 416.660156 82.507812 415.871094 C 81.46875 414.320312 79.984375 412.875 78.007812 411.695312 C 77.003906 411.113281 75.976562 410.542969 74.8125 410.066406 C 73.65625 409.585938 72.40625 409.175781 71.078125 408.851562 C 68.492188 408.175781 65.597656 407.832031 62.574219 408.035156 C 62.816406 408.902344 63.089844 409.75 63.386719 410.574219 C 63.6875 411.398438 63.996094 412.210938 64.390625 412.964844 C 65.160156 414.480469 65.984375 415.90625 66.914062 417.167969 C 67.871094 418.410156 68.878906 419.527344 69.902344 420.488281 C 70.398438 420.976562 70.964844 421.386719 71.492188 421.777344 C 72.03125 422.167969 72.570312 422.515625 73.101562 422.824219 C 75.199219 424.074219 77.34375 424.570312 79.128906 424.402344 C 80.921875 424.230469 82.40625 423.363281 83.425781 421.816406 Z M 97.199219 437.679688 C 95.957031 437.433594 94.445312 437.074219 92.738281 436.625 C 92.316406 436.507812 91.867188 436.402344 91.433594 436.261719 C 90.996094 436.121094 90.550781 435.976562 90.09375 435.832031 C 89.183594 435.53125 88.238281 435.207031 87.269531 434.863281 C 86.28125 434.53125 85.339844 434.117188 84.359375 433.710938 C 83.382812 433.296875 82.398438 432.867188 81.410156 432.421875 C 80.441406 431.964844 79.5 431.46875 78.558594 430.976562 C 77.625 430.480469 76.6875 429.992188 75.8125 429.472656 C 77.65625 430.234375 79.632812 431.007812 81.574219 431.785156 C 83.574219 432.515625 85.566406 433.234375 87.46875 433.894531 C 89.421875 434.507812 91.246094 435.101562 92.914062 435.601562 C 94.609375 436.074219 96.105469 436.496094 97.324219 436.863281 C 97.046875 432.75 93.878906 429.964844 89.339844 428.261719 C 87.011719 427.460938 84.410156 426.878906 81.496094 426.757812 C 80.03125 426.707031 78.570312 426.707031 77.050781 426.855469 C 75.53125 426.996094 73.980469 427.269531 72.425781 427.6875 C 73.304688 429.410156 74.25 431.058594 75.394531 432.480469 C 76.515625 433.921875 77.667969 435.261719 78.957031 436.355469 C 79.589844 436.914062 80.226562 437.433594 80.863281 437.914062 C 81.183594 438.15625 81.503906 438.386719 81.820312 438.605469 C 82.148438 438.820312 82.480469 439.015625 82.808594 439.207031 C 84.125 439.964844 85.417969 440.558594 86.652344 440.984375 C 89.183594 441.78125 91.488281 441.878906 93.304688 441.320312 C 95.132812 440.75 96.5 439.496094 97.199219 437.679688 Z M 115.277344 451.011719 C 114.601562 451.039062 113.847656 451.054688 113.023438 451.054688 C 112.207031 451.050781 111.300781 451.066406 110.386719 450.996094 C 109.460938 450.941406 108.480469 450.871094 107.457031 450.785156 C 106.945312 450.738281 106.421875 450.691406 105.890625 450.640625 C 105.355469 450.59375 104.835938 450.503906 104.296875 450.433594 C 102.152344 450.113281 99.855469 449.765625 97.652344 449.214844 C 96.539062 448.953125 95.417969 448.683594 94.320312 448.394531 C 93.242188 448.074219 92.179688 447.742188 91.144531 447.402344 C 92.179688 447.59375 93.25 447.792969 94.34375 447.996094 C 95.433594 448.1875 96.566406 448.339844 97.675781 448.511719 C 98.796875 448.675781 99.890625 448.859375 101.003906 448.996094 C 102.113281 449.117188 103.210938 449.242188 104.292969 449.363281 C 106.410156 449.632812 108.503906 449.730469 110.339844 449.878906 C 110.796875 449.914062 111.246094 449.949219 111.679688 449.980469 C 112.113281 450.011719 112.546875 450.019531 112.957031 450.039062 C 113.769531 450.078125 114.523438 450.117188 115.207031 450.148438 C 114.886719 449.109375 114.398438 448.199219 113.757812 447.417969 C 113.128906 446.621094 112.382812 445.902344 111.488281 445.335938 C 111.042969 445.046875 110.566406 444.789062 110.0625 444.5625 C 109.550781 444.34375 109.042969 444.101562 108.488281 443.921875 C 107.394531 443.539062 106.183594 443.277344 104.886719 443.128906 C 103.617188 442.9375 102.257812 442.863281 100.832031 442.902344 C 100.121094 442.917969 99.382812 442.976562 98.644531 443.042969 C 97.917969 443.105469 97.171875 443.195312 96.417969 443.3125 C 94.910156 443.554688 93.363281 443.917969 91.804688 444.417969 C 90.234375 444.929688 88.714844 445.515625 87.191406 446.296875 C 87.511719 446.707031 87.835938 447.105469 88.164062 447.5 C 88.511719 447.875 88.859375 448.242188 89.214844 448.601562 C 89.921875 449.320312 90.644531 450.003906 91.378906 450.644531 C 92.105469 451.304688 92.894531 451.859375 93.664062 452.398438 C 94.4375 452.933594 95.21875 453.429688 95.992188 453.886719 C 96.1875 453.996094 96.382812 454.109375 96.574219 454.21875 C 96.773438 454.316406 96.972656 454.417969 97.171875 454.515625 C 97.566406 454.707031 97.964844 454.890625 98.355469 455.0625 C 99.144531 455.40625 99.917969 455.707031 100.683594 455.96875 C 101.066406 456.097656 101.4375 456.222656 101.816406 456.324219 C 102.199219 456.421875 102.578125 456.507812 102.949219 456.582031 C 103.695312 456.734375 104.417969 456.84375 105.117188 456.914062 C 106.515625 457.054688 107.808594 457.039062 109 456.808594 C 110.183594 456.589844 111.226562 456.222656 112.105469 455.710938 C 113.871094 454.691406 114.96875 453.09375 115.277344 451.011719 Z M 137.507812 460.480469 C 136.816406 460.679688 136.042969 460.886719 135.199219 461.097656 C 134.355469 461.3125 133.433594 461.539062 132.46875 461.703125 C 131.5 461.878906 130.472656 462.054688 129.390625 462.222656 C 128.851562 462.304688 128.296875 462.398438 127.738281 462.46875 C 127.179688 462.523438 126.613281 462.582031 126.042969 462.636719 C 124.890625 462.746094 123.703125 462.84375 122.492188 462.925781 C 121.289062 462.992188 120.082031 463 118.859375 463.015625 C 116.398438 463.070312 113.992188 462.898438 111.664062 462.714844 C 112.789062 462.660156 113.953125 462.601562 115.136719 462.542969 C 115.726562 462.507812 116.308594 462.492188 116.90625 462.441406 C 117.503906 462.390625 118.105469 462.335938 118.707031 462.285156 C 119.890625 462.183594 121.082031 462.078125 122.269531 461.972656 C 123.449219 461.84375 124.625 461.679688 125.761719 461.535156 C 126.324219 461.464844 126.882812 461.390625 127.4375 461.316406 C 127.984375 461.25 128.523438 461.175781 129.0625 461.078125 C 130.125 460.898438 131.148438 460.722656 132.128906 460.558594 C 134.050781 460.261719 135.796875 459.855469 137.207031 459.59375 C 136.613281 458.609375 135.875 457.804688 135.019531 457.167969 C 134.175781 456.492188 133.222656 455.960938 132.160156 455.601562 C 131.628906 455.421875 131.074219 455.285156 130.496094 455.175781 C 129.929688 455.042969 129.335938 454.953125 128.722656 454.894531 C 128.109375 454.839844 127.476562 454.820312 126.820312 454.839844 C 126.167969 454.855469 125.492188 454.921875 124.816406 454.96875 C 123.460938 455.089844 122.039062 455.351562 120.570312 455.75 C 119.832031 455.957031 119.101562 456.160156 118.359375 456.402344 C 117.621094 456.640625 116.871094 456.917969 116.117188 457.226562 C 114.621094 457.835938 113.085938 458.621094 111.609375 459.472656 C 110.136719 460.332031 108.679688 461.335938 107.296875 462.496094 C 108.167969 463.175781 109.039062 463.84375 109.953125 464.417969 C 110.867188 464.984375 111.792969 465.507812 112.722656 465.992188 C 114.558594 466.992188 116.480469 467.65625 118.320312 468.222656 C 118.78125 468.359375 119.238281 468.488281 119.691406 468.605469 C 120.152344 468.707031 120.609375 468.792969 121.0625 468.875 C 121.964844 469.03125 122.851562 469.148438 123.707031 469.226562 C 125.414062 469.410156 127.0625 469.304688 128.542969 469.105469 C 131.503906 468.730469 133.910156 467.597656 135.457031 466.109375 C 137.011719 464.609375 137.730469 462.6875 137.507812 460.480469 Z M 163.367188 464.386719 C 162.0625 465.152344 160.429688 466.046875 158.539062 467.003906 C 157.597656 467.441406 156.59375 467.890625 155.53125 468.34375 C 155 468.570312 154.453125 468.800781 153.90625 469.03125 C 153.625 469.148438 153.34375 469.261719 153.0625 469.378906 C 152.78125 469.480469 152.496094 469.585938 152.210938 469.6875 C 149.914062 470.496094 147.4375 471.375 144.941406 471.980469 C 143.691406 472.300781 142.421875 472.632812 141.167969 472.898438 C 139.917969 473.140625 138.675781 473.363281 137.453125 473.566406 C 138.59375 473.21875 139.773438 472.859375 140.976562 472.496094 C 141.570312 472.324219 142.171875 472.109375 142.773438 471.902344 C 143.375 471.695312 143.976562 471.488281 144.582031 471.277344 C 145.179688 471.070312 145.777344 470.863281 146.378906 470.65625 C 146.972656 470.445312 147.5625 470.25 148.15625 470.007812 C 149.320312 469.546875 150.480469 469.089844 151.621094 468.640625 C 152.179688 468.414062 152.734375 468.195312 153.28125 467.976562 C 153.824219 467.734375 154.359375 467.496094 154.886719 467.261719 C 155.921875 466.800781 156.925781 466.355469 157.882812 465.929688 C 158.117188 465.824219 158.351562 465.722656 158.582031 465.621094 C 158.808594 465.507812 159.035156 465.398438 159.257812 465.289062 C 159.703125 465.074219 160.132812 464.863281 160.546875 464.660156 C 161.367188 464.265625 162.128906 463.902344 162.824219 463.570312 C 161.0625 461.855469 158.925781 461.09375 156.566406 460.855469 C 155.976562 460.808594 155.371094 460.808594 154.753906 460.851562 C 154.441406 460.875 154.128906 460.914062 153.8125 460.949219 C 153.5 460.980469 153.179688 461.019531 152.859375 461.070312 C 151.578125 461.273438 150.246094 461.652344 148.882812 462.191406 C 147.527344 462.679688 146.144531 463.308594 144.746094 464.097656 C 144.050781 464.480469 143.34375 464.9375 142.648438 465.367188 C 141.957031 465.804688 141.261719 466.28125 140.574219 466.789062 C 139.195312 467.8125 137.835938 468.972656 136.535156 470.273438 C 135.246094 471.535156 134.015625 472.933594 132.898438 474.476562 C 137.203125 476.433594 141.699219 477.308594 145.792969 477.453125 C 146.300781 477.484375 146.808594 477.472656 147.3125 477.449219 C 147.8125 477.429688 148.304688 477.402344 148.792969 477.367188 C 149.765625 477.292969 150.703125 477.179688 151.605469 477.035156 C 151.832031 476.996094 152.054688 476.960938 152.273438 476.921875 C 152.496094 476.871094 152.714844 476.820312 152.933594 476.765625 C 153.363281 476.660156 153.789062 476.546875 154.199219 476.421875 C 155.023438 476.175781 155.804688 475.902344 156.539062 475.601562 C 157.269531 475.292969 157.953125 474.992188 158.589844 474.605469 C 159.222656 474.226562 159.804688 473.824219 160.332031 473.402344 C 161.382812 472.5625 162.214844 471.648438 162.804688 470.675781 C 163.988281 468.738281 164.195312 466.585938 163.367188 464.386719 Z M 88.230469 300.929688 C 88.714844 300.328125 89.320312 299.609375 90 298.824219 C 90.34375 298.433594 90.703125 298.027344 91.074219 297.601562 C 91.265625 297.394531 91.449219 297.175781 91.652344 296.964844 C 91.855469 296.761719 92.066406 296.554688 92.273438 296.34375 C 93.117188 295.507812 94 294.65625 94.878906 293.820312 C 95.308594 293.394531 95.789062 293.023438 96.238281 292.644531 C 96.695312 292.269531 97.140625 291.902344 97.574219 291.546875 C 97.1875 291.953125 96.789062 292.367188 96.378906 292.792969 C 95.972656 293.222656 95.535156 293.625 95.140625 294.085938 C 94.328125 294.984375 93.5 295.882812 92.6875 296.738281 C 92.484375 296.949219 92.285156 297.160156 92.085938 297.371094 C 91.886719 297.582031 91.707031 297.800781 91.523438 298.011719 C 91.152344 298.429688 90.792969 298.835938 90.449219 299.226562 C 89.761719 299.992188 89.128906 300.675781 88.59375 301.234375 C 89.636719 301.75 90.765625 301.773438 91.859375 301.414062 C 92.40625 301.230469 92.941406 300.953125 93.460938 300.585938 C 93.984375 300.222656 94.464844 299.753906 94.976562 299.257812 C 95.976562 298.25 96.835938 296.90625 97.550781 295.355469 C 98.296875 293.839844 98.855469 292.070312 99.136719 290.105469 C 97.203125 290.183594 95.34375 290.648438 93.683594 291.351562 C 92.058594 292.089844 90.679688 293.117188 89.609375 294.207031 C 89.0625 294.746094 88.652344 295.355469 88.320312 295.949219 C 87.992188 296.546875 87.757812 297.144531 87.628906 297.730469 C 87.371094 298.898438 87.546875 300.003906 88.230469 300.929688 " fill-opacity="1" fill-rule="evenodd"/></g><g clip-path="url(#04d4fffdb1)"><path fill="#ffffff" d="M 243.730469 308.179688 C 242.851562 307.851562 241.960938 307.3125 241.144531 306.570312 C 240.746094 306.191406 240.316406 305.800781 239.929688 305.347656 C 239.539062 304.898438 239.175781 304.398438 238.847656 303.851562 C 239.992188 303.304688 241.167969 303.011719 242.289062 302.9375 C 243.40625 302.871094 244.496094 303.003906 245.371094 303.363281 C 247.144531 304.066406 248.359375 305.433594 248.140625 307.042969 C 247.242188 306.589844 245.882812 306.070312 244.464844 305.546875 C 243.753906 305.289062 243.019531 305.035156 242.292969 304.804688 C 241.542969 304.59375 240.804688 304.40625 240.117188 304.242188 C 240.773438 304.507812 241.492188 304.773438 242.214844 305.046875 C 242.929688 305.339844 243.648438 305.636719 244.34375 305.921875 C 245.054688 306.199219 245.742188 306.46875 246.363281 306.710938 C 246.679688 306.832031 246.980469 306.945312 247.261719 307.046875 C 247.535156 307.15625 247.792969 307.257812 248.019531 307.347656 C 247.132812 308.683594 245.5 308.8125 243.730469 308.179688 Z M 250.578125 319.050781 C 248.828125 318.023438 246.992188 316.191406 245.925781 313.585938 C 247.28125 313.136719 248.578125 313.007812 249.808594 313.101562 C 251.035156 313.199219 252.167969 313.53125 253.117188 314.035156 C 254.085938 314.523438 254.789062 315.226562 255.222656 316.003906 C 255.65625 316.78125 255.804688 317.640625 255.574219 318.5 C 254.632812 317.878906 253.28125 317.066406 251.824219 316.269531 C 250.324219 315.503906 248.679688 314.773438 247.25 314.203125 C 247.917969 314.59375 248.640625 315.003906 249.386719 315.417969 C 249.761719 315.625 250.140625 315.832031 250.515625 316.039062 C 250.894531 316.242188 251.273438 316.445312 251.625 316.664062 C 253.054688 317.507812 254.417969 318.289062 255.410156 318.816406 C 254.257812 320.117188 252.363281 320.042969 250.578125 319.050781 Z M 256.035156 331.265625 C 255.1875 330.566406 254.277344 329.671875 253.566406 328.550781 C 253.203125 327.996094 252.882812 327.382812 252.605469 326.726562 C 252.316406 326.074219 252.035156 325.390625 251.832031 324.652344 C 253.347656 324.382812 254.816406 324.421875 256.15625 324.703125 C 257.472656 324.996094 258.625 325.546875 259.566406 326.246094 C 260.035156 326.597656 260.449219 326.984375 260.792969 327.398438 C 260.960938 327.605469 261.117188 327.816406 261.253906 328.035156 C 261.382812 328.253906 261.480469 328.480469 261.566406 328.710938 C 261.902344 329.628906 261.917969 330.585938 261.519531 331.480469 C 261.066406 331.066406 260.507812 330.582031 259.882812 330.066406 C 259.570312 329.8125 259.242188 329.546875 258.90625 329.269531 C 258.566406 329 258.179688 328.738281 257.804688 328.46875 C 257.050781 327.933594 256.265625 327.402344 255.492188 326.898438 C 254.707031 326.398438 253.972656 325.914062 253.195312 325.519531 C 253.90625 326.019531 254.574219 326.59375 255.316406 327.15625 C 256.0625 327.722656 256.816406 328.296875 257.539062 328.851562 C 258.300781 329.402344 258.949219 329.96875 259.589844 330.46875 C 260.21875 330.976562 260.796875 331.429688 261.285156 331.800781 C 259.816406 333.023438 257.785156 332.628906 256.035156 331.265625 Z M 259.753906 344.734375 C 259.359375 344.289062 258.914062 343.800781 258.546875 343.246094 C 258.171875 342.691406 257.832031 342.085938 257.546875 341.429688 C 257.007812 340.105469 256.5 338.632812 256.320312 336.984375 C 257.984375 336.933594 259.550781 337.210938 260.9375 337.730469 C 261.625 337.992188 262.296875 338.304688 262.859375 338.683594 C 263.425781 339.058594 263.933594 339.480469 264.375 339.933594 C 265.257812 340.84375 265.871094 341.882812 266.128906 342.917969 C 266.328125 343.964844 266.175781 345 265.59375 345.898438 C 264.753906 344.851562 263.578125 343.429688 262.105469 342.039062 C 260.664062 340.636719 259.148438 339.222656 257.628906 338.125 C 258.96875 339.425781 260.347656 340.964844 261.746094 342.40625 C 262.097656 342.765625 262.441406 343.121094 262.769531 343.464844 C 263.101562 343.8125 263.394531 344.15625 263.691406 344.480469 C 264.28125 345.128906 264.820312 345.714844 265.28125 346.195312 C 263.496094 347.257812 261.386719 346.488281 259.753906 344.734375 Z M 261.367188 359.285156 C 260.609375 358.207031 259.960938 356.882812 259.585938 355.386719 C 259.488281 355.015625 259.410156 354.628906 259.34375 354.234375 C 259.253906 353.84375 259.183594 353.441406 259.128906 353.03125 C 259.023438 352.207031 258.984375 351.347656 259.03125 350.457031 C 260.8125 350.679688 262.433594 351.238281 263.820312 352.027344 C 264.515625 352.421875 265.152344 352.875 265.71875 353.371094 C 266.277344 353.863281 266.730469 354.40625 267.125 354.96875 C 267.90625 356.09375 268.378906 357.308594 268.46875 358.457031 C 268.519531 359.609375 268.15625 360.695312 267.382812 361.546875 C 267.03125 360.914062 266.59375 360.164062 266.09375 359.359375 C 265.855469 358.953125 265.570312 358.535156 265.265625 358.113281 C 264.960938 357.691406 264.648438 357.257812 264.332031 356.820312 C 263.691406 355.949219 263.019531 355.070312 262.347656 354.234375 C 261.65625 353.398438 260.910156 352.609375 260.226562 351.890625 C 260.515625 352.296875 260.820312 352.714844 261.128906 353.140625 C 261.4375 353.570312 261.773438 354.007812 262.058594 354.457031 C 262.671875 355.359375 263.289062 356.273438 263.886719 357.152344 C 265.15625 358.929688 266.171875 360.628906 266.992188 361.816406 C 264.902344 362.636719 262.796875 361.4375 261.367188 359.285156 Z M 260.515625 374.640625 C 259.964844 373.375 259.492188 371.863281 259.339844 370.21875 C 259.234375 368.574219 259.199219 366.78125 259.625 364.90625 C 261.476562 365.457031 263.097656 366.328125 264.429688 367.410156 C 265.09375 367.949219 265.699219 368.539062 266.199219 369.164062 C 266.683594 369.785156 267.089844 370.441406 267.40625 371.105469 C 267.726562 371.773438 267.957031 372.449219 268.097656 373.117188 C 268.167969 373.449219 268.214844 373.777344 268.238281 374.101562 C 268.246094 374.425781 268.230469 374.742188 268.1875 375.046875 C 268.027344 376.277344 267.480469 377.367188 266.515625 378.128906 C 266.25 377.394531 265.910156 376.519531 265.515625 375.574219 C 265.121094 374.628906 264.6875 373.613281 264.132812 372.574219 C 263.601562 371.539062 263.035156 370.492188 262.46875 369.484375 C 262.324219 369.234375 262.183594 368.984375 262.035156 368.742188 C 261.878906 368.496094 261.722656 368.253906 261.566406 368.011719 C 261.257812 367.535156 260.949219 367.074219 260.644531 366.632812 C 260.886719 367.117188 261.132812 367.613281 261.382812 368.117188 C 261.507812 368.371094 261.644531 368.628906 261.765625 368.886719 C 261.886719 369.144531 262.003906 369.40625 262.125 369.667969 C 262.621094 370.734375 263.125 371.808594 263.609375 372.84375 C 263.738281 373.109375 263.859375 373.371094 263.980469 373.628906 C 264.09375 373.886719 264.203125 374.140625 264.3125 374.390625 C 264.53125 374.894531 264.742188 375.382812 264.945312 375.847656 C 265.355469 376.785156 265.738281 377.632812 266.066406 378.335938 C 263.71875 378.824219 261.683594 377.167969 260.515625 374.640625 Z M 258.722656 393.945312 C 257.855469 393.054688 257.257812 391.824219 256.871094 390.378906 C 256.664062 389.652344 256.527344 388.875 256.460938 388.0625 C 256.429688 387.65625 256.414062 387.242188 256.421875 386.820312 C 256.433594 386.402344 256.457031 385.972656 256.46875 385.53125 C 256.546875 383.765625 257.046875 381.933594 257.71875 380.03125 C 258.648438 380.488281 259.507812 381.019531 260.289062 381.613281 C 261.070312 382.203125 261.769531 382.855469 262.347656 383.539062 C 263.519531 384.914062 264.34375 386.457031 264.800781 387.992188 C 265.210938 389.511719 265.207031 391.007812 264.847656 392.285156 C 264.753906 392.601562 264.644531 392.910156 264.5 393.195312 C 264.34375 393.476562 264.164062 393.742188 263.964844 393.988281 C 263.5625 394.480469 263.066406 394.890625 262.476562 395.191406 C 262.355469 394.371094 262.183594 393.390625 261.964844 392.328125 C 261.699219 391.246094 261.390625 390.082031 261.050781 388.898438 C 260.882812 388.308594 260.703125 387.714844 260.519531 387.121094 C 260.304688 386.523438 260.089844 385.929688 259.867188 385.347656 C 259.429688 384.179688 258.976562 383.058594 258.523438 382.035156 C 258.8125 383.117188 259.136719 384.28125 259.480469 385.480469 C 259.644531 386.078125 259.839844 386.691406 259.988281 387.292969 C 260.140625 387.898438 260.289062 388.5 260.4375 389.089844 C 260.730469 390.277344 261.054688 391.449219 261.300781 392.507812 C 261.535156 393.5625 261.757812 394.527344 261.957031 395.324219 C 260.667969 395.355469 259.578125 394.828125 258.722656 393.945312 Z M 251.203125 410.089844 C 250.84375 409.539062 250.566406 408.90625 250.367188 408.21875 C 250.167969 407.527344 250.066406 406.792969 249.988281 405.984375 C 249.921875 405.1875 249.933594 404.351562 250.035156 403.496094 C 250.082031 403.066406 250.15625 402.632812 250.25 402.199219 C 250.332031 401.753906 250.414062 401.300781 250.535156 400.851562 C 250.765625 399.949219 251.085938 399.039062 251.511719 398.136719 C 251.894531 397.21875 252.351562 396.292969 252.929688 395.386719 C 254.695312 396.699219 256.085938 398.273438 257.085938 399.960938 C 258.066406 401.636719 258.585938 403.402344 258.75 405.09375 C 258.789062 405.515625 258.8125 405.9375 258.792969 406.339844 C 258.765625 406.738281 258.71875 407.128906 258.644531 407.507812 C 258.5 408.265625 258.265625 408.972656 257.941406 409.601562 C 257.316406 410.875 256.21875 411.765625 254.871094 412.167969 C 254.90625 411.28125 254.945312 410.234375 254.910156 409.0625 C 254.859375 407.882812 254.777344 406.605469 254.667969 405.304688 C 254.582031 404.015625 254.34375 402.644531 254.136719 401.347656 C 253.917969 400.042969 253.691406 398.796875 253.367188 397.613281 C 253.519531 398.824219 253.585938 400.085938 253.699219 401.402344 C 253.757812 402.066406 253.816406 402.734375 253.871094 403.398438 C 253.941406 404.070312 253.949219 404.714844 253.988281 405.371094 C 254.0625 406.691406 254.132812 407.964844 254.199219 409.121094 C 254.226562 410.273438 254.257812 411.328125 254.304688 412.207031 C 252.945312 411.96875 251.917969 411.1875 251.203125 410.089844 Z M 239.597656 420.792969 C 239.71875 419.964844 239.882812 419.082031 240.164062 418.214844 C 240.304688 417.78125 240.464844 417.34375 240.648438 416.910156 C 240.835938 416.476562 241.046875 416.042969 241.25 415.59375 C 241.675781 414.699219 242.195312 413.824219 242.816406 412.972656 C 243.136719 412.554688 243.4375 412.109375 243.777344 411.683594 C 244.113281 411.257812 244.476562 410.835938 244.871094 410.425781 C 246.433594 412.15625 247.558594 414.078125 248.246094 416.042969 C 248.882812 417.972656 249.085938 419.9375 248.898438 421.734375 C 248.667969 423.5 248.023438 425.070312 247.09375 426.253906 C 246.121094 427.40625 244.828125 428.132812 243.347656 428.261719 C 243.570312 427.34375 243.808594 426.238281 244.039062 425.03125 C 244.097656 424.726562 244.160156 424.421875 244.207031 424.101562 C 244.253906 423.777344 244.296875 423.449219 244.34375 423.117188 C 244.429688 422.449219 244.511719 421.765625 244.589844 421.074219 C 244.664062 420.386719 244.734375 419.6875 244.792969 418.992188 C 244.828125 418.277344 244.855469 417.566406 244.875 416.863281 C 244.894531 416.164062 244.90625 415.472656 244.90625 414.800781 C 244.902344 414.464844 244.902344 414.136719 244.898438 413.808594 C 244.890625 413.480469 244.863281 413.148438 244.847656 412.828125 C 244.816406 413.144531 244.800781 413.476562 244.757812 413.800781 C 244.71875 414.125 244.683594 414.453125 244.640625 414.785156 C 244.566406 415.457031 244.488281 416.144531 244.410156 416.832031 C 244.328125 417.523438 244.273438 418.246094 244.167969 418.933594 C 244.070312 419.628906 243.96875 420.324219 243.871094 421.003906 C 243.527344 423.777344 243.015625 426.308594 242.753906 428.175781 C 240.058594 427.101562 239.113281 424.074219 239.597656 420.792969 Z M 224.875 438.652344 C 224.761719 437.929688 224.769531 437.160156 224.886719 436.371094 C 225 435.585938 225.1875 434.730469 225.492188 433.898438 C 225.789062 433.0625 226.1875 432.226562 226.679688 431.410156 C 227.148438 430.5625 227.699219 429.722656 228.355469 428.925781 C 228.675781 428.519531 229.039062 428.140625 229.398438 427.742188 C 229.753906 427.34375 230.132812 426.953125 230.535156 426.574219 C 231.335938 425.808594 232.273438 425.128906 233.21875 424.417969 C 233.84375 425.488281 234.351562 426.589844 234.726562 427.6875 C 235.089844 428.773438 235.332031 429.863281 235.457031 430.941406 C 235.585938 432.019531 235.597656 433.082031 235.507812 434.109375 C 235.421875 435.140625 235.175781 436.070312 234.875 436.972656 C 234.5625 437.863281 234.160156 438.691406 233.683594 439.425781 C 233.199219 440.144531 232.613281 440.742188 231.988281 441.234375 C 231.359375 441.726562 230.679688 442.097656 229.960938 442.324219 C 229.238281 442.535156 228.457031 442.578125 227.667969 442.46875 C 227.894531 442.027344 228.136719 441.539062 228.390625 441.015625 C 228.640625 440.492188 228.875 439.894531 229.125 439.285156 C 229.613281 438.054688 230.140625 436.75 230.597656 435.347656 C 231.042969 433.929688 231.464844 432.480469 231.835938 431.070312 C 232.179688 429.625 232.449219 428.195312 232.675781 426.882812 C 232.46875 427.523438 232.253906 428.183594 232.035156 428.855469 C 231.925781 429.195312 231.816406 429.542969 231.707031 429.890625 L 231.539062 430.414062 L 231.355469 430.929688 C 230.863281 432.332031 230.359375 433.753906 229.878906 435.125 C 229.34375 436.5 228.832031 437.820312 228.363281 439.023438 C 228.246094 439.332031 228.132812 439.632812 228.019531 439.921875 C 227.902344 440.207031 227.789062 440.484375 227.675781 440.746094 C 227.457031 441.285156 227.253906 441.785156 227.066406 442.234375 C 225.789062 441.367188 225.097656 440.097656 224.875 438.652344 Z M 205.921875 448.917969 C 205.980469 448.148438 206.1875 447.386719 206.484375 446.582031 C 206.78125 445.777344 207.191406 444.976562 207.703125 444.199219 C 207.957031 443.8125 208.234375 443.429688 208.542969 443.058594 C 208.691406 442.871094 208.851562 442.6875 209.015625 442.503906 C 209.171875 442.3125 209.335938 442.121094 209.507812 441.933594 C 210.1875 441.179688 210.960938 440.46875 211.820312 439.820312 C 212.257812 439.507812 212.683594 439.152344 213.148438 438.839844 C 213.609375 438.519531 214.089844 438.214844 214.59375 437.933594 C 215.621094 437.390625 216.671875 436.820312 217.835938 436.363281 C 218.226562 437.605469 218.480469 438.839844 218.613281 440.058594 C 218.742188 441.277344 218.75 442.484375 218.617188 443.597656 C 218.484375 444.726562 218.242188 445.8125 217.898438 446.835938 C 217.554688 447.859375 217.121094 448.828125 216.570312 449.644531 C 214.4375 453.019531 210.953125 454.769531 207.835938 453.519531 C 208.175781 453.117188 208.554688 452.707031 208.929688 452.203125 C 209.304688 451.707031 209.699219 451.171875 210.105469 450.613281 C 210.910156 449.484375 211.777344 448.289062 212.566406 446.929688 C 212.96875 446.265625 213.363281 445.585938 213.753906 444.910156 C 214.140625 444.234375 214.519531 443.5625 214.859375 442.847656 C 215.546875 441.4375 216.183594 440.074219 216.71875 438.78125 C 215.984375 439.996094 215.199219 441.285156 214.40625 442.59375 L 214.105469 443.097656 L 213.789062 443.582031 C 213.578125 443.90625 213.367188 444.230469 213.15625 444.554688 C 212.726562 445.214844 212.300781 445.871094 211.882812 446.515625 C 211.671875 446.839844 211.46875 447.171875 211.253906 447.480469 C 211.039062 447.789062 210.824219 448.09375 210.617188 448.390625 C 210.195312 449 209.785156 449.589844 209.394531 450.148438 C 209 450.71875 208.628906 451.261719 208.277344 451.769531 C 207.917969 452.261719 207.585938 452.71875 207.285156 453.132812 C 206.1875 451.921875 205.792969 450.453125 205.921875 448.917969 Z M 183.441406 454.640625 C 183.707031 453.875 184.113281 453.128906 184.632812 452.421875 C 185.152344 451.714844 185.773438 450.972656 186.492188 450.320312 C 187.210938 449.65625 188.03125 449.0625 188.921875 448.503906 C 189.800781 447.910156 190.765625 447.382812 191.804688 446.945312 C 192.0625 446.832031 192.328125 446.726562 192.597656 446.628906 C 192.863281 446.519531 193.128906 446.40625 193.40625 446.304688 C 193.949219 446.097656 194.515625 445.910156 195.101562 445.753906 C 195.683594 445.585938 196.289062 445.472656 196.902344 445.339844 C 197.511719 445.195312 198.136719 445.082031 198.785156 444.996094 C 198.867188 446.363281 198.8125 447.691406 198.636719 448.964844 C 198.546875 449.601562 198.425781 450.230469 198.277344 450.835938 C 198.125 451.429688 197.941406 452.007812 197.730469 452.566406 C 197.308594 453.683594 196.78125 454.730469 196.167969 455.6875 C 195.859375 456.164062 195.535156 456.628906 195.1875 457.046875 C 194.835938 457.453125 194.464844 457.835938 194.082031 458.191406 C 193.316406 458.902344 192.496094 459.503906 191.648438 459.976562 C 191.222656 460.222656 190.789062 460.402344 190.351562 460.546875 C 189.917969 460.695312 189.476562 460.804688 189.042969 460.882812 C 188.167969 461.035156 187.308594 461.042969 186.484375 460.886719 C 185.664062 460.71875 184.875 460.347656 184.167969 459.828125 C 184.617188 459.519531 185.109375 459.167969 185.628906 458.789062 C 186.148438 458.410156 186.6875 457.949219 187.25 457.488281 C 187.808594 457.019531 188.382812 456.527344 188.96875 456.015625 C 189.550781 455.507812 190.144531 454.984375 190.722656 454.394531 C 191.878906 453.230469 193.039062 452.0625 194.109375 450.835938 C 195.171875 449.582031 196.164062 448.339844 197.039062 447.171875 C 195.996094 448.1875 194.878906 449.304688 193.722656 450.464844 C 192.523438 451.582031 191.308594 452.710938 190.136719 453.796875 C 187.730469 455.910156 185.382812 457.9375 183.707031 459.289062 C 182.910156 457.773438 182.902344 456.171875 183.441406 454.640625 Z M 255.609375 308.839844 C 255.835938 308.40625 255.996094 307.902344 256.085938 307.34375 C 256.164062 306.792969 256.15625 306.199219 256.082031 305.5625 C 255.929688 304.292969 255.484375 302.863281 254.738281 301.429688 C 253.933594 300.042969 252.832031 298.644531 251.46875 297.398438 C 249.742188 300.199219 249.199219 303.273438 249.539062 305.695312 C 249.671875 306.9375 250.039062 308.019531 250.628906 308.847656 C 250.925781 309.261719 251.277344 309.609375 251.6875 309.882812 C 252.09375 310.160156 252.523438 310.382812 253.027344 310.5 C 252.996094 310.171875 252.964844 309.8125 252.929688 309.421875 C 252.886719 309.039062 252.839844 308.628906 252.792969 308.199219 C 252.703125 307.320312 252.601562 306.359375 252.5 305.359375 C 252.335938 303.316406 252.011719 301.195312 251.8125 299.25 C 252.054688 300.210938 252.289062 301.230469 252.507812 302.257812 L 252.664062 303.027344 C 252.714844 303.285156 252.75 303.550781 252.789062 303.808594 C 252.863281 304.328125 252.9375 304.847656 253.007812 305.355469 C 253.273438 307.378906 253.464844 309.1875 253.449219 310.507812 C 254.425781 310.292969 255.152344 309.703125 255.609375 308.839844 Z M 263.203125 321.652344 C 263.835938 320.773438 264.1875 319.550781 264.234375 318.101562 C 264.257812 317.378906 264.207031 316.597656 264.074219 315.78125 C 264.042969 315.578125 264.007812 315.371094 263.960938 315.164062 C 263.914062 314.957031 263.855469 314.753906 263.792969 314.546875 C 263.671875 314.132812 263.527344 313.714844 263.363281 313.289062 C 263.035156 312.441406 262.628906 311.582031 262.136719 310.730469 C 262.015625 310.515625 261.886719 310.304688 261.753906 310.09375 C 261.613281 309.886719 261.464844 309.683594 261.308594 309.476562 C 261.003906 309.074219 260.675781 308.671875 260.332031 308.28125 C 259.171875 309.699219 258.367188 311.226562 257.8125 312.757812 C 257.234375 314.300781 256.945312 315.820312 256.941406 317.199219 C 256.929688 317.894531 257.019531 318.535156 257.128906 319.15625 C 257.238281 319.777344 257.417969 320.347656 257.671875 320.859375 C 258.183594 321.878906 258.984375 322.652344 260.082031 323.074219 C 260.105469 321.632812 260.199219 319.570312 260.324219 317.277344 C 260.375 314.980469 260.429688 312.523438 260.480469 310.363281 C 260.628906 311.464844 260.695312 312.664062 260.769531 313.84375 C 260.804688 314.4375 260.832031 315.027344 260.855469 315.613281 C 260.875 316.199219 260.902344 316.769531 260.882812 317.347656 C 260.828125 319.65625 260.71875 321.707031 260.53125 323.144531 C 261.644531 323.070312 262.550781 322.542969 263.203125 321.652344 Z M 270.765625 332.425781 C 270.90625 331.636719 271.011719 330.753906 270.972656 329.84375 C 270.925781 328.933594 270.800781 327.972656 270.585938 326.980469 C 270.480469 326.484375 270.351562 325.980469 270.199219 325.472656 C 270.125 325.21875 270.042969 324.964844 269.957031 324.707031 C 269.863281 324.453125 269.757812 324.207031 269.648438 323.953125 C 269.207031 322.949219 268.675781 321.9375 268.050781 320.953125 C 265.0625 323.738281 263.464844 327.1875 262.914062 330.226562 C 262.484375 333.230469 263.09375 335.878906 265.367188 337.171875 C 265.503906 336.386719 265.6875 335.429688 265.90625 334.359375 C 266.015625 333.820312 266.132812 333.257812 266.253906 332.671875 C 266.3125 332.378906 266.378906 332.082031 266.441406 331.777344 C 266.492188 331.480469 266.542969 331.175781 266.59375 330.867188 C 267 328.417969 267.546875 325.675781 267.863281 323.292969 C 267.859375 323.914062 267.84375 324.550781 267.820312 325.191406 C 267.796875 325.835938 267.71875 326.503906 267.664062 327.160156 C 267.535156 328.480469 267.378906 329.792969 267.210938 331.035156 C 267.140625 331.65625 267 332.277344 266.890625 332.863281 C 266.773438 333.453125 266.65625 334.019531 266.539062 334.550781 C 266.304688 335.621094 266.074219 336.5625 265.867188 337.328125 C 268.367188 337.546875 270.167969 335.617188 270.765625 332.425781 Z M 275.207031 348.429688 C 276.433594 345.085938 276.277344 340.171875 274.191406 335.453125 C 272.34375 336.710938 270.824219 338.238281 269.648438 339.824219 C 269.058594 340.621094 268.554688 341.433594 268.144531 342.242188 C 267.714844 343.058594 267.335938 343.878906 267.074219 344.679688 C 266.808594 345.480469 266.636719 346.261719 266.566406 347.015625 C 266.527344 347.390625 266.519531 347.757812 266.535156 348.117188 C 266.53125 348.480469 266.550781 348.832031 266.601562 349.175781 C 266.792969 350.539062 267.417969 351.730469 268.519531 352.632812 C 268.8125 351.804688 269.183594 350.804688 269.609375 349.679688 C 269.824219 349.113281 270.050781 348.523438 270.285156 347.910156 C 270.53125 347.292969 270.71875 346.664062 270.949219 346.011719 C 271.40625 344.691406 271.875 343.320312 272.339844 341.972656 C 272.460938 341.628906 272.570312 341.289062 272.671875 340.953125 C 272.773438 340.613281 272.878906 340.277344 272.980469 339.945312 C 273.1875 339.269531 273.390625 338.609375 273.589844 337.972656 C 273.476562 338.648438 273.347656 339.339844 273.214844 340.039062 C 273.078125 340.738281 272.945312 341.441406 272.746094 342.152344 C 272.378906 343.570312 271.980469 344.972656 271.578125 346.300781 C 271.476562 346.628906 271.375 346.957031 271.277344 347.277344 C 271.171875 347.601562 271.046875 347.917969 270.933594 348.230469 C 270.703125 348.851562 270.476562 349.445312 270.253906 350.003906 C 269.8125 351.125 269.394531 352.105469 269.035156 352.898438 C 271.707031 353.582031 273.992188 351.804688 275.207031 348.429688 Z M 273.683594 369.472656 C 274.964844 368.828125 276.125 367.585938 277.074219 365.878906 C 278.070312 364.175781 278.636719 362.003906 278.921875 359.558594 C 278.980469 358.945312 279.058594 358.316406 279.039062 357.675781 C 279.027344 357.035156 278.992188 356.382812 278.933594 355.722656 C 278.875 355.058594 278.789062 354.386719 278.675781 353.710938 C 278.621094 353.371094 278.558594 353.03125 278.488281 352.691406 C 278.449219 352.519531 278.414062 352.351562 278.375 352.179688 C 278.328125 352.011719 278.28125 351.839844 278.230469 351.671875 C 277.164062 352.191406 276.132812 352.804688 275.1875 353.46875 C 274.246094 354.136719 273.386719 354.859375 272.613281 355.617188 C 271.839844 356.371094 271.15625 357.160156 270.570312 357.960938 C 270.425781 358.160156 270.285156 358.363281 270.148438 358.5625 C 270.007812 358.765625 269.867188 358.96875 269.734375 359.171875 C 269.46875 359.578125 269.226562 359.988281 269.011719 360.394531 C 268.585938 361.207031 268.261719 362.019531 268.050781 362.816406 C 267.941406 363.210938 267.867188 363.605469 267.820312 363.996094 C 267.761719 364.382812 267.714844 364.765625 267.707031 365.140625 C 267.671875 366.644531 268.136719 368.035156 269.15625 369.203125 C 269.621094 368.367188 270.191406 367.355469 270.851562 366.222656 C 271.179688 365.652344 271.527344 365.054688 271.886719 364.4375 C 272.253906 363.816406 272.574219 363.171875 272.933594 362.511719 C 273.65625 361.167969 274.40625 359.773438 275.144531 358.402344 C 275.84375 356.992188 276.53125 355.601562 277.175781 354.300781 C 276.683594 355.722656 276.164062 357.203125 275.550781 358.667969 C 274.902344 360.132812 274.226562 361.578125 273.558594 362.933594 C 273.230469 363.613281 272.902344 364.269531 272.53125 364.898438 C 272.171875 365.527344 271.824219 366.125 271.488281 366.6875 C 270.808594 367.8125 270.21875 368.792969 269.648438 369.578125 C 270.992188 370.179688 272.378906 370.121094 273.683594 369.472656 Z M 271.574219 387.65625 C 272.320312 387.433594 273.074219 387.050781 273.8125 386.515625 C 274.179688 386.246094 274.542969 385.941406 274.902344 385.601562 C 275.257812 385.257812 275.582031 384.875 275.90625 384.460938 C 277.1875 382.800781 278.386719 380.601562 279.039062 378.003906 C 279.789062 375.425781 279.988281 372.460938 279.722656 369.402344 C 277.222656 370.144531 274.933594 371.296875 273.035156 372.636719 C 272.558594 372.972656 272.101562 373.324219 271.671875 373.679688 C 271.242188 374.039062 270.839844 374.40625 270.429688 374.78125 C 269.628906 375.527344 268.921875 376.304688 268.332031 377.09375 C 268.035156 377.492188 267.765625 377.890625 267.527344 378.292969 C 267.410156 378.492188 267.296875 378.695312 267.191406 378.898438 C 267.078125 379.097656 266.96875 379.296875 266.871094 379.5 C 266.46875 380.300781 266.195312 381.109375 266.054688 381.910156 C 265.808594 383.511719 265.960938 385.0625 266.804688 386.5 C 267.144531 386.101562 267.519531 385.660156 267.925781 385.183594 C 268.328125 384.710938 268.792969 384.203125 269.222656 383.65625 C 270.125 382.546875 271.113281 381.332031 272.136719 380.074219 C 274.125 377.503906 276.316406 374.640625 278.128906 372.035156 C 277.359375 373.476562 276.5625 374.976562 275.589844 376.429688 C 275.121094 377.160156 274.648438 377.882812 274.171875 378.585938 C 273.703125 379.292969 273.230469 379.984375 272.710938 380.640625 C 271.703125 381.964844 270.726562 383.191406 269.824219 384.269531 C 268.875 385.339844 267.996094 386.257812 267.265625 386.992188 C 268.601562 387.898438 270.078125 388.101562 271.574219 387.65625 Z M 265.867188 406.210938 C 266.707031 406.125 267.582031 405.871094 268.476562 405.453125 C 269.359375 405.03125 270.21875 404.425781 271.085938 403.675781 C 271.515625 403.300781 271.945312 402.890625 272.367188 402.441406 C 272.78125 401.988281 273.21875 401.511719 273.585938 400.980469 C 274.34375 399.921875 275.0625 398.730469 275.710938 397.425781 C 276.046875 396.777344 276.308594 396.082031 276.566406 395.371094 C 276.820312 394.65625 277.054688 393.917969 277.261719 393.15625 C 277.710938 391.648438 277.925781 390.019531 278.054688 388.355469 C 276.65625 388.519531 275.308594 388.804688 274.035156 389.179688 C 272.753906 389.558594 271.566406 390.03125 270.394531 390.558594 C 269.242188 391.085938 268.171875 391.679688 267.199219 392.328125 C 266.71875 392.648438 266.257812 392.984375 265.828125 393.332031 C 265.390625 393.675781 264.953125 394.019531 264.558594 394.382812 C 262.960938 395.816406 261.871094 397.410156 261.199219 399.019531 C 260.882812 399.832031 260.710938 400.664062 260.699219 401.511719 C 260.679688 402.351562 260.773438 403.183594 261.074219 404.023438 C 261.515625 403.671875 262.003906 403.285156 262.53125 402.867188 C 263.054688 402.445312 263.589844 401.980469 264.175781 401.492188 C 264.765625 401.003906 265.382812 400.492188 266.023438 399.960938 C 266.347656 399.691406 266.675781 399.417969 267.007812 399.144531 C 267.328125 398.859375 267.648438 398.570312 267.976562 398.277344 C 268.636719 397.6875 269.308594 397.089844 269.984375 396.484375 C 270.664062 395.875 271.375 395.261719 272.019531 394.625 C 273.359375 393.339844 274.675781 392.074219 275.910156 390.886719 C 274.816406 392.277344 273.597656 393.699219 272.371094 395.082031 C 271.113281 396.457031 269.757812 397.773438 268.488281 399 C 265.84375 401.417969 263.347656 403.414062 261.445312 404.640625 C 262.667969 405.863281 264.1875 406.378906 265.867188 406.210938 Z M 256.085938 424.402344 C 257.871094 424.570312 260.015625 424.074219 262.117188 422.824219 C 262.644531 422.515625 263.183594 422.167969 263.722656 421.777344 C 264.253906 421.386719 264.816406 420.976562 265.316406 420.488281 C 266.335938 419.527344 267.34375 418.410156 268.300781 417.167969 C 269.230469 415.902344 270.054688 414.480469 270.824219 412.964844 C 271.21875 412.210938 271.527344 411.398438 271.828125 410.574219 C 272.125 409.75 272.398438 408.902344 272.640625 408.035156 C 269.617188 407.832031 266.722656 408.175781 264.136719 408.851562 C 262.808594 409.175781 261.558594 409.585938 260.402344 410.066406 C 259.238281 410.542969 258.210938 411.113281 257.207031 411.695312 C 255.230469 412.875 253.75 414.320312 252.707031 415.871094 C 252.207031 416.660156 251.855469 417.5 251.660156 418.382812 C 251.4375 419.246094 251.382812 420.152344 251.511719 421.101562 C 252.570312 420.535156 253.914062 419.890625 255.316406 419.09375 C 256.035156 418.699219 256.792969 418.285156 257.574219 417.859375 C 257.96875 417.644531 258.371094 417.421875 258.777344 417.203125 C 259.171875 416.96875 259.574219 416.730469 259.976562 416.492188 C 263.257812 414.597656 266.753906 412.363281 269.839844 410.28125 C 269.484375 410.601562 269.144531 410.925781 268.765625 411.238281 C 268.386719 411.546875 268.003906 411.855469 267.613281 412.171875 C 266.839844 412.792969 266.050781 413.410156 265.257812 414.015625 C 264.484375 414.628906 263.628906 415.191406 262.808594 415.75 C 261.984375 416.304688 261.167969 416.84375 260.367188 417.355469 C 260.167969 417.484375 259.96875 417.609375 259.769531 417.734375 C 259.566406 417.855469 259.359375 417.972656 259.160156 418.09375 C 258.75 418.324219 258.351562 418.550781 257.960938 418.773438 C 257.171875 419.214844 256.414062 419.628906 255.695312 420.007812 C 254.984375 420.398438 254.269531 420.726562 253.609375 421.023438 C 252.949219 421.320312 252.339844 421.585938 251.785156 421.816406 C 252.808594 423.363281 254.292969 424.230469 256.085938 424.402344 Z M 241.910156 441.320312 C 243.726562 441.878906 246.03125 441.78125 248.5625 440.984375 C 249.796875 440.558594 251.089844 439.964844 252.40625 439.207031 C 252.734375 439.015625 253.066406 438.820312 253.394531 438.605469 C 253.710938 438.386719 254.03125 438.15625 254.351562 437.914062 C 254.988281 437.433594 255.625 436.914062 256.257812 436.355469 C 257.546875 435.261719 258.699219 433.921875 259.820312 432.480469 C 260.964844 431.058594 261.914062 429.410156 262.789062 427.6875 C 261.234375 427.269531 259.683594 426.996094 258.167969 426.855469 C 256.644531 426.707031 255.183594 426.707031 253.71875 426.757812 C 250.808594 426.878906 248.203125 427.460938 245.875 428.261719 C 241.335938 429.964844 238.167969 432.75 237.890625 436.863281 C 239.109375 436.496094 240.605469 436.074219 242.300781 435.601562 C 243.96875 435.101562 245.792969 434.507812 247.746094 433.894531 C 249.648438 433.234375 251.640625 432.515625 253.640625 431.785156 C 255.582031 431.007812 257.558594 430.234375 259.402344 429.472656 C 258.53125 429.992188 257.589844 430.480469 256.65625 430.976562 C 255.714844 431.46875 254.773438 431.964844 253.804688 432.421875 C 252.820312 432.867188 251.832031 433.296875 250.855469 433.710938 C 249.875 434.117188 248.933594 434.53125 247.945312 434.863281 C 246.976562 435.207031 246.03125 435.53125 245.121094 435.832031 C 244.667969 435.976562 244.222656 436.121094 243.78125 436.261719 C 243.347656 436.402344 242.898438 436.507812 242.476562 436.625 C 240.769531 437.074219 239.257812 437.433594 238.015625 437.679688 C 238.714844 439.496094 240.082031 440.75 241.910156 441.320312 Z M 223.105469 455.710938 C 223.988281 456.222656 225.03125 456.589844 226.214844 456.808594 C 227.410156 457.039062 228.699219 457.054688 230.097656 456.914062 C 230.796875 456.84375 231.519531 456.734375 232.265625 456.582031 C 232.640625 456.507812 233.015625 456.421875 233.398438 456.324219 C 233.777344 456.222656 234.152344 456.097656 234.535156 455.96875 C 235.292969 455.707031 236.074219 455.40625 236.859375 455.0625 C 237.25 454.890625 237.648438 454.707031 238.046875 454.515625 C 238.242188 454.417969 238.441406 454.316406 238.640625 454.21875 C 238.832031 454.109375 239.027344 453.996094 239.222656 453.886719 C 239.996094 453.429688 240.777344 452.933594 241.550781 452.398438 C 242.320312 451.859375 243.113281 451.304688 243.835938 450.644531 C 244.570312 450.003906 245.292969 449.320312 246.003906 448.601562 C 246.355469 448.242188 246.707031 447.875 247.050781 447.5 C 247.382812 447.105469 247.703125 446.707031 248.023438 446.296875 C 246.5 445.515625 244.980469 444.929688 243.414062 444.417969 C 241.855469 443.917969 240.304688 443.554688 238.796875 443.3125 C 238.042969 443.195312 237.296875 443.105469 236.570312 443.042969 C 235.832031 442.976562 235.09375 442.917969 234.386719 442.902344 C 232.957031 442.863281 231.597656 442.9375 230.332031 443.128906 C 229.03125 443.277344 227.820312 443.539062 226.726562 443.921875 C 226.171875 444.101562 225.664062 444.34375 225.15625 444.5625 C 224.648438 444.789062 224.171875 445.046875 223.726562 445.335938 C 222.835938 445.902344 222.085938 446.621094 221.453125 447.417969 C 220.816406 448.199219 220.328125 449.109375 220.007812 450.148438 C 220.691406 450.117188 221.445312 450.078125 222.261719 450.039062 C 222.667969 450.019531 223.101562 450.011719 223.535156 449.980469 C 223.96875 449.949219 224.417969 449.914062 224.875 449.878906 C 226.710938 449.730469 228.804688 449.632812 230.921875 449.363281 C 232.003906 449.242188 233.105469 449.117188 234.210938 448.996094 C 235.324219 448.859375 236.417969 448.675781 237.539062 448.511719 C 238.648438 448.339844 239.78125 448.1875 240.871094 447.996094 C 241.964844 447.792969 243.035156 447.59375 244.070312 447.402344 C 243.035156 447.742188 241.972656 448.074219 240.894531 448.394531 C 239.796875 448.683594 238.675781 448.953125 237.5625 449.214844 C 235.359375 449.765625 233.0625 450.113281 230.917969 450.433594 C 230.378906 450.503906 229.859375 450.59375 229.324219 450.640625 C 228.792969 450.691406 228.273438 450.738281 227.757812 450.785156 C 226.734375 450.871094 225.753906 450.941406 224.828125 450.996094 C 223.914062 451.066406 223.007812 451.050781 222.191406 451.054688 C 221.371094 451.054688 220.613281 451.039062 219.9375 451.011719 C 220.246094 453.09375 221.34375 454.691406 223.105469 455.710938 Z M 199.757812 466.109375 C 201.304688 467.597656 203.710938 468.730469 206.671875 469.105469 C 208.152344 469.304688 209.800781 469.410156 211.507812 469.226562 C 212.367188 469.148438 213.25 469.03125 214.15625 468.875 C 214.605469 468.792969 215.0625 468.707031 215.523438 468.605469 C 215.976562 468.488281 216.4375 468.359375 216.898438 468.222656 C 218.734375 467.65625 220.65625 466.992188 222.496094 465.992188 C 223.421875 465.507812 224.347656 464.984375 225.261719 464.417969 C 226.175781 463.84375 227.046875 463.175781 227.921875 462.496094 C 226.535156 461.335938 225.082031 460.332031 223.601562 459.472656 C 222.132812 458.621094 220.59375 457.835938 219.097656 457.226562 C 218.34375 456.917969 217.59375 456.640625 216.855469 456.402344 C 216.113281 456.160156 215.382812 455.957031 214.644531 455.75 C 213.175781 455.351562 211.753906 455.089844 210.398438 454.96875 C 209.722656 454.921875 209.046875 454.855469 208.394531 454.839844 C 207.738281 454.820312 207.105469 454.839844 206.492188 454.894531 C 205.878906 454.953125 205.289062 455.042969 204.71875 455.175781 C 204.140625 455.285156 203.585938 455.421875 203.054688 455.601562 C 201.996094 455.960938 201.039062 456.492188 200.195312 457.167969 C 199.339844 457.804688 198.601562 458.609375 198.007812 459.59375 C 199.421875 459.855469 201.164062 460.261719 203.085938 460.558594 C 204.066406 460.722656 205.089844 460.898438 206.152344 461.078125 C 206.691406 461.175781 207.230469 461.25 207.777344 461.316406 C 208.332031 461.390625 208.890625 461.464844 209.457031 461.535156 C 210.589844 461.679688 211.765625 461.84375 212.945312 461.972656 C 214.132812 462.078125 215.324219 462.183594 216.507812 462.285156 C 217.109375 462.335938 217.710938 462.390625 218.308594 462.441406 C 218.90625 462.492188 219.488281 462.507812 220.078125 462.542969 C 221.261719 462.601562 222.425781 462.660156 223.550781 462.714844 C 221.222656 462.898438 218.816406 463.070312 216.355469 463.015625 C 215.132812 463 213.925781 462.992188 212.722656 462.925781 C 211.511719 462.84375 210.324219 462.746094 209.171875 462.636719 C 208.601562 462.582031 208.035156 462.523438 207.476562 462.46875 C 206.917969 462.398438 206.363281 462.304688 205.824219 462.222656 C 204.742188 462.054688 203.714844 461.878906 202.746094 461.703125 C 201.785156 461.539062 200.859375 461.3125 200.015625 461.097656 C 199.171875 460.886719 198.398438 460.679688 197.707031 460.480469 C 197.484375 462.6875 198.203125 464.609375 199.757812 466.109375 Z M 172.410156 470.675781 C 173 471.648438 173.832031 472.5625 174.882812 473.402344 C 175.410156 473.824219 175.992188 474.226562 176.625 474.605469 C 177.261719 474.992188 177.945312 475.292969 178.675781 475.601562 C 179.410156 475.902344 180.191406 476.175781 181.015625 476.421875 C 181.425781 476.546875 181.851562 476.660156 182.285156 476.765625 C 182.5 476.820312 182.71875 476.871094 182.941406 476.921875 C 183.160156 476.960938 183.386719 476.996094 183.609375 477.035156 C 184.511719 477.179688 185.449219 477.292969 186.421875 477.367188 C 186.910156 477.402344 187.402344 477.429688 187.902344 477.449219 C 188.40625 477.472656 188.914062 477.484375 189.421875 477.453125 C 193.515625 477.308594 198.011719 476.433594 202.316406 474.476562 C 201.199219 472.933594 199.96875 471.535156 198.679688 470.273438 C 197.378906 468.972656 196.019531 467.8125 194.640625 466.789062 C 193.953125 466.28125 193.261719 465.804688 192.566406 465.367188 C 191.871094 464.9375 191.167969 464.480469 190.46875 464.097656 C 189.070312 463.308594 187.6875 462.679688 186.332031 462.191406 C 184.96875 461.652344 183.636719 461.273438 182.355469 461.070312 C 182.035156 461.019531 181.714844 460.980469 181.402344 460.949219 C 181.085938 460.914062 180.773438 460.875 180.464844 460.851562 C 179.84375 460.808594 179.238281 460.808594 178.648438 460.855469 C 176.289062 461.09375 174.152344 461.855469 172.390625 463.570312 C 173.085938 463.902344 173.847656 464.265625 174.667969 464.660156 C 175.085938 464.863281 175.515625 465.074219 175.957031 465.289062 C 176.179688 465.398438 176.40625 465.507812 176.632812 465.621094 C 176.863281 465.722656 177.097656 465.824219 177.332031 465.929688 C 178.289062 466.355469 179.292969 466.800781 180.328125 467.261719 C 180.855469 467.496094 181.394531 467.734375 181.933594 467.976562 C 182.480469 468.195312 183.035156 468.414062 183.59375 468.640625 C 184.734375 469.089844 185.894531 469.546875 187.058594 470.007812 C 187.652344 470.25 188.242188 470.445312 188.835938 470.65625 C 189.4375 470.863281 190.035156 471.070312 190.632812 471.277344 C 191.238281 471.488281 191.839844 471.695312 192.441406 471.902344 C 193.042969 472.109375 193.648438 472.324219 194.238281 472.496094 C 195.441406 472.859375 196.621094 473.21875 197.761719 473.566406 C 196.539062 473.363281 195.296875 473.140625 194.046875 472.898438 C 192.792969 472.632812 191.527344 472.300781 190.277344 471.980469 C 187.78125 471.375 185.304688 470.496094 183.007812 469.6875 C 182.71875 469.585938 182.433594 469.480469 182.152344 469.378906 C 181.871094 469.261719 181.589844 469.148438 181.3125 469.03125 C 180.761719 468.800781 180.21875 468.570312 179.683594 468.34375 C 178.625 467.890625 177.617188 467.441406 176.675781 467.003906 C 174.785156 466.046875 173.152344 465.152344 171.851562 464.386719 C 171.019531 466.585938 171.230469 468.738281 172.410156 470.675781 Z M 247.585938 297.730469 C 247.457031 297.144531 247.222656 296.546875 246.894531 295.949219 C 246.5625 295.355469 246.152344 294.746094 245.605469 294.207031 C 244.535156 293.117188 243.15625 292.089844 241.53125 291.351562 C 239.871094 290.648438 238.011719 290.183594 236.078125 290.105469 C 236.359375 292.070312 236.917969 293.839844 237.667969 295.355469 C 238.375 296.90625 239.238281 298.25 240.238281 299.257812 C 240.75 299.753906 241.234375 300.222656 241.753906 300.585938 C 242.273438 300.953125 242.8125 301.230469 243.355469 301.414062 C 244.449219 301.773438 245.578125 301.75 246.625 301.234375 C 246.085938 300.679688 245.453125 299.992188 244.765625 299.222656 C 244.421875 298.835938 244.0625 298.429688 243.691406 298.011719 C 243.507812 297.800781 243.328125 297.578125 243.128906 297.371094 C 242.929688 297.160156 242.730469 296.949219 242.527344 296.738281 C 241.714844 295.878906 240.886719 294.984375 240.074219 294.085938 C 239.683594 293.625 239.238281 293.21875 238.835938 292.792969 C 238.425781 292.367188 238.027344 291.949219 237.640625 291.546875 C 238.074219 291.902344 238.519531 292.269531 238.980469 292.640625 C 239.425781 293.023438 239.90625 293.394531 240.335938 293.820312 C 241.214844 294.652344 242.097656 295.511719 242.941406 296.34375 C 243.152344 296.554688 243.359375 296.761719 243.5625 296.964844 C 243.765625 297.175781 243.949219 297.390625 244.140625 297.601562 C 244.511719 298.027344 244.871094 298.433594 245.214844 298.824219 C 245.898438 299.609375 246.5 300.328125 246.984375 300.929688 C 247.667969 300.003906 247.84375 298.898438 247.585938 297.730469 " fill-opacity="1" fill-rule="evenodd"/></g><g fill="#ffffff" fill-opacity="1"><g transform="translate(303.852967, 469.668205)"><g><path d="M 93.984375 0 L 56.234375 0 L 2.8125 -158.125 L 36.015625 -158.125 L 74.40625 -40.234375 L 77.109375 -40.234375 L 114.96875 -158.125 L 147.3125 -158.125 Z M 93.984375 0 "/></g></g><g transform="translate(453.969426, 469.668205)"><g><path d="M 151.734375 0 L 118.859375 0 L 106.96875 -36.453125 L 46.390625 -36.453125 L 34.5 0 L 2.375 0 L 57 -158.125 L 97.125 -158.125 Z M 75.171875 -125.140625 L 54.828125 -62.734375 L 98.3125 -62.734375 L 77.875 -125.140625 Z M 75.171875 -125.140625 "/></g></g><g transform="translate(608.087546, 469.668205)"><g><path d="M 86.625 0 L 55.375 0 L 55.375 -62.078125 L 0.75 -158.125 L 34.28125 -158.125 L 70.40625 -95.9375 L 73.109375 -95.9375 L 108.484375 -158.125 L 141.25 -158.125 L 86.625 -62.078125 Z M 86.625 0 "/></g></g></g></svg>